{"glyphs":{"0":{"ha":918,"x_min":56,"x_max":894,"o":"m 565 1010 q 893 715 893 1010 q 882 596 893 661 l 849 401 q 699 85 813 189 q 385 -19 586 -19 q 108 83 185 -19 q 57 275 57 154 q 68 401 57 333 l 101 596 q 565 1010 174 1010 m 310 318 q 422 196 310 196 q 535 242 492 196 q 600 407 579 288 l 632 590 q 640 669 640 636 q 529 794 640 794 q 351 590 388 792 l 318 407 q 310 318 310 356 z "},"1":{"ha":703,"x_min":74,"x_max":708,"o":"m 533 0 l 282 0 l 400 667 q 278 563 367 613 q 92 513 189 513 l 74 746 q 318 826 204 746 q 458 1000 432 906 l 708 1000 l 533 0 z "},"2":{"ha":883,"x_min":11,"x_max":876,"o":"m 346 614 q 356 554 346 574 l 110 554 q 101 640 101 588 q 215 909 101 808 q 539 1010 328 1010 q 876 738 876 1010 q 829 556 876 640 q 714 419 782 472 q 578 326 646 365 q 460 259 510 286 q 406 218 410 232 l 406 217 l 776 217 l 738 0 l 11 0 l 29 103 q 96 259 44 190 q 213 367 147 328 q 351 444 278 406 q 483 512 424 482 q 583 589 543 542 q 622 694 622 636 q 510 794 622 794 q 389 745 432 794 q 346 614 346 696 z "},"3":{"ha":882,"x_min":32,"x_max":872,"o":"m 360 658 q 367 617 360 638 l 121 617 q 114 682 114 642 q 224 922 114 833 q 539 1010 333 1010 q 788 941 703 1010 q 872 751 872 872 q 807 565 872 653 q 657 478 742 478 l 657 474 q 761 428 722 474 q 800 308 800 382 q 364 -19 800 -19 q 96 64 182 -19 q 32 233 32 125 q 40 317 32 272 l 290 317 q 288 288 288 301 q 407 196 288 196 q 511 232 469 196 q 553 321 553 268 q 447 401 553 401 l 307 401 l 335 553 l 446 553 q 567 598 518 554 q 617 693 617 642 q 585 769 617 744 q 493 794 554 794 q 396 758 432 794 q 360 658 360 721 z "},"4":{"ha":864,"x_min":10,"x_max":824,"o":"m 621 0 l 374 0 l 404 176 l 10 176 l 67 497 l 460 972 l 724 972 l 322 457 l 308 376 l 457 376 l 492 567 l 721 567 l 686 376 l 824 376 l 789 176 l 651 176 l 621 0 z "},"5":{"ha":881,"x_min":40,"x_max":863,"o":"m 297 276 q 326 218 297 240 q 418 196 354 196 q 526 237 482 196 q 569 339 569 278 q 538 435 569 400 q 461 471 507 471 q 335 435 379 471 l 319 422 l 82 422 l 183 1000 l 863 1000 l 824 782 l 381 782 l 357 644 q 541 676 418 676 q 744 600 664 676 q 824 393 824 524 q 713 95 824 210 q 390 -19 601 -19 q 100 58 179 -19 q 42 218 42 115 q 49 296 42 254 l 299 296 q 297 276 297 286 z "},"6":{"ha":897,"x_min":50,"x_max":890,"o":"m 582 586 q 763 523 703 586 q 824 357 824 460 q 715 80 824 179 q 393 -19 607 -19 q 103 67 179 -19 q 50 238 50 128 q 60 339 50 285 l 117 658 q 561 1010 179 1010 q 807 952 724 1010 q 890 792 890 894 q 878 715 890 751 q 854 661 867 678 l 842 644 l 596 644 q 629 731 629 679 q 522 794 629 794 q 363 639 390 794 l 353 586 l 582 586 m 464 399 l 321 399 l 314 358 q 308 289 308 324 q 417 196 308 196 q 568 313 568 196 q 464 399 568 399 z "},"7":{"ha":792,"x_min":88,"x_max":865,"o":"m 338 0 l 88 0 q 160 236 110 122 q 269 431 211 350 q 384 577 328 511 q 481 697 440 643 q 526 783 521 750 l 100 783 l 139 1000 l 865 1000 l 847 897 q 664 565 821 743 q 535 413 600 492 q 414 228 469 335 q 338 0 358 121 z "},"8":{"ha":868,"x_min":24,"x_max":857,"o":"m 24 219 q 44 344 24 288 q 87 431 64 401 q 144 486 110 461 q 190 515 179 511 q 215 525 200 519 q 158 578 186 535 q 133 690 133 619 q 244 923 133 838 q 526 1008 354 1008 q 778 951 699 1008 q 857 792 857 894 q 839 694 857 739 q 794 625 821 650 q 700 554 740 569 l 682 547 q 793 333 793 482 q 681 65 793 150 q 353 -19 569 -19 q 113 40 203 -19 q 24 219 24 99 m 276 288 q 392 196 276 196 q 509 228 467 196 q 551 319 551 261 q 485 394 551 378 l 393 415 q 381 412 389 414 q 352 400 372 410 q 317 378 332 390 q 276 288 276 342 m 574 665 q 578 677 574 665 q 582 719 582 689 q 560 772 582 750 q 492 794 539 794 q 414 765 446 794 q 382 703 382 735 q 392 656 382 672 q 424 624 406 628 l 504 604 q 528 613 513 604 q 555 631 544 621 q 574 665 565 642 z "},"9":{"ha":897,"x_min":38,"x_max":878,"o":"m 344 404 q 165 467 225 404 q 104 633 104 531 q 213 910 104 811 q 535 1010 321 1010 q 825 922 749 1010 q 878 753 878 863 q 868 651 878 706 l 811 332 q 367 -19 749 -19 q 121 38 204 -19 q 38 199 38 96 q 48 273 38 236 q 69 328 58 310 l 79 346 l 325 346 q 300 271 300 311 q 406 196 300 196 q 565 351 538 196 l 575 404 l 344 404 m 464 592 l 607 592 l 614 632 q 619 701 619 667 q 511 794 619 794 q 360 678 360 794 q 464 592 360 592 z "}," ":{"ha":333,"x_min":0,"x_max":0,"o":""},"!":{"ha":408,"x_min":15,"x_max":436,"o":"m 285 364 l 100 364 l 200 1099 l 436 1099 l 285 364 m 15 81 q 54 210 15 169 q 178 251 93 251 q 294 149 294 251 q 255 21 294 61 q 131 -19 215 -19 q 15 81 15 -19 z "},"\"":{"ha":546,"x_min":142,"x_max":611,"o":"m 283 811 l 142 811 l 193 1139 l 350 1139 l 283 811 m 544 811 l 403 811 l 454 1139 l 611 1139 l 544 811 z "},"#":{"ha":897,"x_min":-1,"x_max":888,"o":"m 704 149 l 596 149 l 565 68 l 399 68 l 429 149 l 288 149 l 257 68 l 90 68 l 121 149 l -1 149 l 50 274 l 171 274 l 238 446 l 131 446 l 182 571 l 286 571 l 331 683 l 496 683 l 453 571 l 594 571 l 639 683 l 804 683 l 761 571 l 888 571 l 836 446 l 713 446 l 644 274 l 756 274 l 704 149 m 479 274 l 546 446 l 404 446 l 336 274 l 479 274 z "},"$":{"ha":875,"x_min":21,"x_max":878,"o":"m 279 283 q 417 189 279 189 q 556 275 556 189 q 508 350 556 321 q 394 399 461 379 q 258 444 326 418 q 143 524 190 469 q 96 661 96 579 q 184 897 96 807 q 457 1006 272 986 l 486 1174 l 694 1174 l 664 1000 q 824 922 769 981 q 878 775 878 863 q 867 699 878 735 q 844 647 856 663 l 833 631 l 588 631 q 618 711 618 663 q 500 801 618 801 q 392 778 432 801 q 353 707 353 754 q 400 632 353 660 q 515 588 447 604 q 650 549 582 572 q 765 470 718 525 q 813 328 813 415 q 734 95 813 181 q 486 -12 656 10 l 453 -200 l 244 -200 l 276 -15 q 64 78 124 0 q 22 218 22 131 q 31 304 22 257 l 35 326 l 285 326 l 282 310 q 279 283 279 296 z "},"%":{"ha":1160,"x_min":85,"x_max":1107,"o":"m 356 1010 q 532 858 532 1010 q 526 803 532 833 l 510 706 q 264 494 472 494 q 86 646 86 494 q 92 706 86 674 l 108 803 q 356 1010 143 1010 m 233 669 q 286 617 233 617 q 335 636 317 617 q 364 708 354 656 l 381 800 q 383 831 383 817 q 333 888 383 888 q 254 800 269 888 l 238 708 q 233 669 233 686 m 140 0 l 864 1010 l 1058 1010 l 335 0 l 140 0 m 928 493 q 1106 344 1106 493 q 1100 286 1106 318 l 1082 189 q 1003 30 1063 82 q 838 -22 944 -22 q 658 129 658 -22 q 664 189 658 156 l 682 286 q 928 493 719 493 m 808 154 q 858 100 808 100 q 909 119 889 100 q 938 192 929 139 l 953 283 q 956 314 956 300 q 906 371 956 371 q 826 283 842 371 l 811 192 q 808 154 808 171 z "},"&":{"ha":926,"x_min":31,"x_max":914,"o":"m 367 -19 q 31 214 31 -19 q 94 401 31 328 q 249 474 157 474 l 249 478 q 150 535 186 478 q 114 665 114 592 q 231 913 114 817 q 556 1010 347 1010 q 799 949 717 1010 q 882 782 882 889 q 872 708 882 743 q 850 658 861 674 l 839 644 l 593 644 q 622 725 622 674 q 515 794 622 794 q 406 759 449 794 q 363 671 363 724 q 396 586 363 618 q 488 553 429 554 l 914 553 l 886 401 l 825 401 l 810 317 q 663 64 779 147 q 367 -19 547 -19 m 292 288 q 321 222 292 247 q 399 196 350 196 q 574 317 553 196 l 589 401 l 431 401 q 292 288 292 401 z "},"'":{"ha":285,"x_min":142,"x_max":350,"o":"m 283 811 l 142 811 l 193 1139 l 350 1139 l 283 811 z "},"(":{"ha":489,"x_min":24,"x_max":568,"o":"m 98 -327 q 89 -307 98 -327 q 52 -154 81 -287 q 24 135 24 -21 q 60 449 24 290 q 150 714 97 607 q 256 903 203 821 q 344 1025 308 986 l 382 1064 l 568 978 q 466 845 525 935 q 366 665 407 756 q 292 433 325 575 q 258 153 258 290 q 279 -95 258 15 q 322 -253 300 -206 l 343 -301 l 126 -387 q 98 -327 115 -367 z "},")":{"ha":489,"x_min":-104,"x_max":440,"o":"m 98 8 q 118 53 98 8 q 172 240 139 99 q 206 497 206 382 q 197 687 206 611 q 175 813 188 763 q 131 960 151 918 l 121 978 l 338 1064 q 366 1003 349 1043 q 412 829 383 963 q 440 539 440 696 q 403 224 440 382 q 314 -40 367 65 q 119 -350 203 -261 l 82 -387 l -104 -301 q -71 -266 -92 -289 q 3 -162 -50 -243 q 98 8 57 -82 z "},"*":{"ha":608,"x_min":126,"x_max":660,"o":"m 500 703 l 390 658 l 363 835 l 235 686 l 154 753 l 314 894 l 126 906 l 157 1019 l 335 972 l 285 1143 l 396 1189 l 419 1003 l 553 1161 l 632 1094 l 476 953 l 660 940 l 628 828 l 449 871 l 500 703 z "},"+":{"ha":619,"x_min":26,"x_max":571,"o":"m 169 86 l 201 265 l 26 265 l 56 429 l 231 429 l 261 601 l 425 601 l 394 429 l 571 429 l 542 265 l 365 265 l 333 86 l 169 86 z "},",":{"ha":410,"x_min":-90,"x_max":296,"o":"m 7 81 q 47 210 7 169 q 171 251 86 251 q 296 128 296 251 q -90 -281 296 -281 l -72 -181 q 74 -111 1 -181 q 122 -19 114 -72 q 7 81 7 -19 z "},"-":{"ha":572,"x_min":57,"x_max":503,"o":"m 472 290 l 57 290 l 88 465 l 503 465 l 472 290 z "},".":{"ha":394,"x_min":7,"x_max":286,"o":"m 7 81 q 46 210 7 169 q 169 251 85 251 q 286 149 286 251 q 247 21 286 61 q 122 -19 207 -19 q 7 81 7 -19 z "},"/":{"ha":789,"x_min":-107,"x_max":871,"o":"m 183 -385 l -107 -385 l 582 1056 l 871 1056 l 183 -385 z "},":":{"ha":432,"x_min":25,"x_max":381,"o":"m 25 81 q 64 210 25 169 q 188 251 103 251 q 304 149 304 251 q 265 21 304 61 q 140 -19 225 -19 q 25 81 25 -19 m 101 518 q 141 648 101 607 q 251 689 181 689 q 351 665 322 689 q 381 586 381 640 q 341 458 381 499 q 217 418 301 418 q 101 518 101 418 z "},";":{"ha":443,"x_min":-72,"x_max":382,"o":"m 103 518 q 142 648 103 607 q 265 689 182 689 q 382 586 382 689 q 342 458 382 499 q 218 418 301 418 q 103 518 103 418 m 25 81 q 65 210 25 169 q 189 251 104 251 q 314 128 314 251 q -72 -281 314 -281 l -54 -181 q 92 -111 19 -181 q 140 -19 132 -72 q 25 81 25 -19 z "},"<":{"ha":586,"x_min":15,"x_max":574,"o":"m 446 10 l 15 300 l 40 443 l 574 735 l 540 540 l 233 371 l 481 204 l 446 10 z "},"=":{"ha":679,"x_min":33,"x_max":629,"o":"m 600 425 l 85 425 l 114 589 l 629 589 l 600 425 m 549 132 l 33 132 l 63 296 l 578 296 l 549 132 z "},">":{"ha":586,"x_min":-1,"x_max":557,"o":"m 532 300 l -1 10 l 33 204 l 339 371 l 92 540 l 126 735 l 557 443 l 532 300 z "},"?":{"ha":822,"x_min":97,"x_max":857,"o":"m 342 686 q 351 628 342 654 l 106 628 q 97 714 97 661 q 210 969 97 875 q 532 1063 322 1063 q 777 1001 697 1063 q 857 831 857 939 q 820 689 857 754 q 729 581 783 624 q 621 501 675 538 q 525 431 567 465 q 478 364 483 396 l 461 274 l 228 274 l 243 364 q 294 480 256 432 q 380 553 333 528 q 472 604 426 579 q 578 772 578 663 q 481 847 578 847 q 378 803 414 847 q 342 686 342 760 m 165 46 q 205 176 165 135 q 328 217 244 217 q 444 114 444 217 q 405 -14 444 26 q 281 -54 365 -54 q 165 46 165 -54 z "},"@":{"ha":1364,"x_min":31,"x_max":1376,"o":"m 781 888 q 761 888 781 888 q 712 886 742 888 q 626 880 682 885 q 533 860 571 875 q 453 822 494 846 q 350 665 371 775 l 281 274 q 278 228 278 256 q 297 164 278 201 q 357 103 317 126 q 456 64 397 79 q 656 42 546 42 q 865 58 765 42 q 1010 92 965 75 l 1054 110 l 1090 -92 q 851 -147 999 -121 q 607 -174 703 -174 q 136 -56 274 -174 q 31 194 31 35 q 40 297 31 243 l 106 665 q 320 982 140 861 q 833 1103 500 1103 q 1108 1069 993 1103 q 1282 975 1222 1036 q 1376 749 1376 881 q 1369 676 1376 714 l 1347 544 q 1190 264 1315 360 q 894 168 1065 168 q 750 264 767 168 q 686 199 731 229 q 572 168 642 168 q 417 228 463 168 q 383 336 383 268 q 389 397 383 364 l 413 535 q 501 705 432 642 q 678 768 569 768 q 825 717 788 768 l 832 753 l 1036 753 l 981 435 q 978 411 978 421 q 1010 374 978 374 q 1097 486 1075 374 l 1135 679 q 1139 728 1139 701 q 1124 789 1139 754 q 1078 844 1108 824 q 992 875 1049 864 q 871 888 919 888 q 781 888 821 888 m 667 364 q 749 401 721 364 l 774 543 q 703 574 764 574 q 660 557 678 574 q 636 513 642 540 l 619 422 q 618 403 618 415 q 631 377 618 390 q 667 364 643 364 z "},"A":{"ha":890,"x_min":-36,"x_max":785,"o":"m 521 0 l 529 218 l 297 218 l 229 0 l -36 0 l 321 1000 l 779 1000 l 785 0 l 521 0 m 464 757 l 354 404 l 536 404 l 551 757 l 464 757 z "},"B":{"ha":913,"x_min":26,"x_max":881,"o":"m 606 1000 q 831 931 764 1000 q 881 797 881 878 q 875 739 881 769 l 863 672 q 803 549 847 593 q 726 504 760 504 l 725 493 q 804 450 764 493 q 844 349 844 407 q 839 299 844 325 l 831 256 q 724 68 808 136 q 490 0 640 0 l 26 0 l 203 1000 l 606 1000 m 481 408 l 349 408 l 315 217 l 447 217 q 453 217 450 217 q 554 247 517 217 q 592 319 592 276 q 481 408 592 408 m 518 783 l 414 783 l 378 576 l 481 576 q 614 693 614 576 q 590 758 614 733 q 518 783 565 783 z "},"C":{"ha":899,"x_min":50,"x_max":896,"o":"m 378 -19 q 103 67 179 -19 q 50 238 50 128 q 60 339 50 285 l 117 658 q 568 1010 179 1010 q 813 941 729 1010 q 896 753 896 872 q 880 642 896 697 q 849 561 864 588 l 833 533 l 588 533 q 633 683 633 586 q 607 765 633 735 q 529 794 581 794 q 363 639 389 794 l 314 358 q 307 288 307 322 q 417 196 307 196 q 575 344 549 196 l 825 344 l 818 304 q 378 -19 763 -19 z "},"D":{"ha":929,"x_min":26,"x_max":910,"o":"m 592 1000 q 851 908 774 1000 q 908 735 908 839 q 901 656 908 697 l 847 346 q 711 94 819 189 q 431 0 603 0 l 26 0 l 203 1000 l 592 1000 m 504 783 l 414 783 l 315 217 l 447 217 q 549 252 513 217 q 600 368 586 288 l 640 596 q 646 651 646 626 q 504 783 646 783 z "},"E":{"ha":857,"x_min":26,"x_max":900,"o":"m 724 0 l 26 0 l 203 1000 l 900 1000 l 861 783 l 414 783 l 382 596 l 751 596 l 713 379 l 343 379 l 315 217 l 763 217 l 724 0 z "},"F":{"ha":836,"x_min":26,"x_max":900,"o":"m 711 367 l 342 367 l 278 0 l 26 0 l 203 1000 l 900 1000 l 861 783 l 414 783 l 379 583 l 749 583 l 711 367 z "},"G":{"ha":901,"x_min":51,"x_max":894,"o":"m 375 -19 q 103 72 178 -19 q 51 247 51 136 q 63 360 51 299 l 111 638 q 567 1010 176 1010 q 811 941 728 1010 q 894 753 894 872 q 881 654 894 704 q 856 579 868 604 l 842 554 l 596 554 q 632 669 632 604 q 528 794 632 794 q 360 632 388 794 l 313 365 q 306 292 306 328 q 419 196 306 196 q 564 310 532 196 l 450 310 l 478 464 l 846 464 l 824 344 l 817 304 q 375 -19 758 -19 z "},"H":{"ha":968,"x_min":26,"x_max":974,"o":"m 974 1000 l 799 0 l 547 0 l 611 361 l 340 361 l 278 0 l 26 0 l 203 1000 l 453 1000 l 378 578 l 649 578 l 724 1000 l 974 1000 z "},"I":{"ha":447,"x_min":26,"x_max":453,"o":"m 453 1000 l 278 0 l 26 0 l 203 1000 l 453 1000 z "},"J":{"ha":878,"x_min":-3,"x_max":892,"o":"m 332 -19 q -3 224 -3 -19 q 6 304 -3 261 l 24 407 l 274 407 l 265 361 q 260 290 260 326 q 278 231 260 254 q 369 196 306 196 q 473 231 433 196 q 529 358 513 265 l 643 1001 l 892 1001 l 775 339 q 636 67 743 154 q 332 -19 529 -19 z "},"K":{"ha":911,"x_min":26,"x_max":996,"o":"m 996 1000 l 678 496 l 819 0 l 556 0 l 451 367 l 342 367 l 276 0 l 26 0 l 203 1000 l 453 1000 l 379 583 l 468 583 l 732 1000 l 996 1000 z "},"L":{"ha":744,"x_min":26,"x_max":699,"o":"m 660 0 l 26 0 l 203 1000 l 453 1000 l 315 217 l 699 217 l 660 0 z "},"M":{"ha":1189,"x_min":26,"x_max":1194,"o":"m 464 1000 l 613 521 l 932 1000 l 1194 1000 l 1018 0 l 767 0 l 867 564 l 653 228 l 471 228 l 376 564 l 276 0 l 26 0 l 203 1000 l 464 1000 z "},"N":{"ha":968,"x_min":26,"x_max":974,"o":"m 974 1000 l 799 0 l 547 0 l 372 547 l 278 0 l 26 0 l 203 1000 l 461 1000 l 633 489 l 724 1000 l 974 1000 z "},"O":{"ha":922,"x_min":51,"x_max":901,"o":"m 567 1010 q 901 736 901 1010 q 892 638 901 690 l 843 360 q 699 74 810 167 q 386 -19 588 -19 q 106 74 185 -19 q 51 250 51 138 q 63 360 51 300 l 111 638 q 567 1010 176 1010 m 424 196 q 535 232 493 196 q 593 365 576 268 l 640 632 q 644 682 644 660 q 531 794 644 794 q 360 632 388 792 l 313 365 q 307 293 307 331 q 424 196 307 196 z "},"P":{"ha":886,"x_min":26,"x_max":900,"o":"m 496 304 l 331 304 l 276 0 l 26 0 l 203 1000 l 626 1000 q 850 928 783 1000 q 899 786 899 872 q 893 725 899 757 l 865 568 q 743 378 844 453 q 496 304 642 304 m 539 783 l 414 783 l 368 521 l 492 521 q 624 622 606 521 l 633 679 q 636 713 636 692 q 615 758 636 733 q 539 783 594 783 z "},"Q":{"ha":926,"x_min":49,"x_max":906,"o":"m 568 1010 q 904 749 904 1010 q 896 658 904 707 l 839 339 q 724 91 811 178 q 482 -14 638 4 q 556 -94 497 -64 q 710 -124 615 -124 l 703 -321 q 517 -297 597 -321 q 394 -240 438 -274 q 322 -160 350 -206 q 278 -11 281 -89 q 49 240 49 24 q 58 339 49 286 l 115 658 q 568 1010 178 1010 m 424 196 q 535 231 493 196 q 593 358 576 265 l 643 639 q 647 686 647 665 q 531 794 647 794 q 361 639 388 792 l 313 358 q 307 289 307 325 q 424 196 307 196 z "},"R":{"ha":911,"x_min":26,"x_max":881,"o":"m 606 1000 q 831 931 764 1000 q 881 797 881 878 q 875 739 881 769 l 856 631 q 798 485 839 540 q 707 406 757 429 l 833 0 l 553 0 l 436 374 l 350 374 l 293 0 l 26 0 l 203 1000 l 606 1000 m 518 783 l 414 783 l 378 542 l 475 542 q 581 577 549 542 q 613 671 613 613 q 518 783 613 783 z "},"S":{"ha":900,"x_min":33,"x_max":890,"o":"m 292 285 q 430 189 292 189 q 568 275 568 189 q 521 350 568 321 q 406 399 474 379 q 272 444 339 418 q 157 524 204 469 q 110 661 110 579 q 558 1010 110 1010 q 806 948 722 1010 q 890 776 890 886 q 880 699 890 736 q 858 647 869 663 l 847 631 l 601 631 q 632 711 632 663 q 514 801 632 801 q 365 707 365 801 q 413 632 365 660 q 527 588 460 604 q 663 549 594 572 q 778 470 731 525 q 825 328 825 415 q 719 66 825 151 q 394 -19 614 -19 q 94 58 175 -19 q 35 219 35 117 q 43 304 35 258 l 47 326 l 297 326 l 294 310 q 292 285 292 296 z "},"T":{"ha":967,"x_min":81,"x_max":1056,"o":"m 1017 783 l 675 783 l 538 0 l 286 0 l 424 783 l 81 783 l 119 1000 l 1056 1000 l 1017 783 z "},"U":{"ha":960,"x_min":69,"x_max":974,"o":"m 716 73 q 661 27 716 73 q 404 -19 606 -19 q 125 74 203 -19 q 69 250 69 138 q 81 360 69 300 l 193 1000 l 443 1000 l 331 365 q 325 293 325 331 q 442 196 325 196 q 553 232 511 196 q 611 365 594 268 l 724 1000 l 974 1000 l 861 360 q 716 73 826 165 z "},"V":{"ha":900,"x_min":138,"x_max":972,"o":"m 438 243 l 701 1000 l 972 1000 l 593 0 l 149 0 l 138 1000 l 410 1000 l 406 243 l 438 243 z "},"W":{"ha":1389,"x_min":131,"x_max":1456,"o":"m 933 1000 l 910 243 l 942 243 l 1183 1000 l 1456 1000 l 1113 0 l 696 0 l 733 640 l 547 0 l 131 0 l 140 1000 l 413 1000 l 388 243 l 419 243 l 663 1000 l 933 1000 z "},"X":{"ha":956,"x_min":-61,"x_max":1050,"o":"m 1050 1000 l 658 496 l 874 0 l 589 0 l 453 319 l 224 0 l -61 0 l 307 496 l 115 1000 l 400 1000 l 515 675 l 765 1000 l 1050 1000 z "},"Y":{"ha":894,"x_min":104,"x_max":994,"o":"m 510 649 l 744 1000 l 994 1000 l 567 385 l 499 0 l 247 0 l 315 385 l 104 1000 l 369 1000 l 478 649 l 510 649 z "},"Z":{"ha":858,"x_min":-10,"x_max":900,"o":"m 722 0 l -10 0 l 29 217 l 31 217 l 568 783 l 128 783 l 167 1000 l 900 1000 l 861 783 l 324 217 l 761 217 l 722 0 z "},"[":{"ha":599,"x_min":-50,"x_max":667,"o":"m 413 -386 l -50 -386 l 204 1054 l 667 1054 l 628 838 l 400 838 l 224 -169 l 451 -169 l 413 -386 z "},"\\":{"ha":783,"x_min":143,"x_max":613,"o":"m 613 -385 l 322 -385 l 143 1056 l 432 1056 l 613 -385 z "},"]":{"ha":599,"x_min":-94,"x_max":622,"o":"m 368 -386 l -94 -386 l -56 -169 l 172 -169 l 349 838 l 121 838 l 160 1054 l 622 1054 l 368 -386 z "},"^":{"ha":726,"x_min":208,"x_max":796,"o":"m 407 789 l 208 789 l 435 1121 l 686 1121 l 796 789 l 597 789 l 531 953 l 407 789 z "},"_":{"ha":922,"x_min":-57,"x_max":660,"o":"m 629 -586 l -57 -586 l -26 -411 l 660 -411 l 629 -586 z "},"`":{"ha":558,"x_min":267,"x_max":628,"o":"m 628 789 l 422 789 l 267 1121 l 517 1121 l 628 789 z "},"a":{"ha":836,"x_min":21,"x_max":781,"o":"m 682 214 q 719 178 682 178 q 781 192 756 178 l 774 35 q 624 -19 707 -19 q 454 92 471 -19 q 250 -19 385 -19 q 22 176 22 -19 q 29 250 22 210 l 58 413 q 160 612 81 538 q 369 686 240 686 q 543 626 497 686 l 550 668 l 761 668 l 683 231 q 682 214 682 222 m 271 281 q 268 246 268 268 q 289 202 268 224 q 359 181 310 181 q 444 219 408 181 l 486 453 q 414 488 471 488 q 289 385 307 488 l 271 281 z "},"b":{"ha":792,"x_min":38,"x_max":742,"o":"m 507 688 q 700 611 644 688 q 742 479 742 557 q 735 413 742 447 l 707 257 q 584 52 683 124 q 334 -19 485 -19 q 103 40 183 -19 q 39 172 39 88 q 43 218 39 194 l 190 1054 l 426 1054 l 356 650 q 507 688 414 688 m 494 392 q 496 423 496 403 q 478 466 496 443 q 403 489 461 489 q 321 454 346 489 l 281 222 q 350 181 297 181 q 476 288 457 181 l 494 392 z "},"c":{"ha":764,"x_min":22,"x_max":726,"o":"m 311 -19 q 22 181 22 -19 q 28 240 22 208 l 57 413 q 178 617 79 546 q 431 689 278 688 q 726 483 726 689 q 716 403 726 439 q 694 356 706 368 l 683 342 l 447 342 q 482 414 482 372 q 407 489 482 489 q 331 463 363 489 q 289 382 299 436 l 271 281 q 268 254 268 267 q 360 181 268 181 q 415 200 390 181 q 443 243 439 219 l 674 240 q 311 -19 628 -19 z "},"d":{"ha":863,"x_min":21,"x_max":829,"o":"m 682 214 q 719 178 682 178 q 781 192 756 178 l 774 35 q 624 -19 707 -19 q 454 92 471 -19 q 250 -19 385 -19 q 22 176 22 -19 q 29 250 22 210 l 58 413 q 160 612 81 538 q 382 686 240 686 q 521 649 469 686 l 592 1054 l 829 1054 l 683 231 q 682 214 682 222 m 271 281 q 268 246 268 268 q 289 202 268 224 q 359 181 310 181 q 444 219 408 181 l 486 453 q 414 488 471 488 q 289 385 307 488 l 271 281 z "},"e":{"ha":767,"x_min":22,"x_max":724,"o":"m 311 -19 q 22 181 22 -19 q 28 240 22 208 l 57 413 q 180 617 81 546 q 443 689 279 689 q 722 478 722 689 q 717 411 722 447 l 700 313 l 276 313 l 271 281 q 268 250 268 264 q 358 174 268 174 q 415 194 392 174 q 443 243 439 215 l 674 240 q 311 -19 628 -19 m 478 397 q 483 441 483 421 q 465 482 483 461 q 408 503 447 503 q 335 476 368 503 q 290 397 303 450 l 478 397 z "},"f":{"ha":721,"x_min":-22,"x_max":710,"o":"m 633 -25 q 530 -358 633 -228 q 249 -487 426 -487 q 14 -400 72 -487 q -22 -265 -22 -344 q -8 -106 -22 -185 l 169 900 l 406 900 l 364 668 l 710 668 l 675 472 l 403 472 q 567 267 501 393 q 633 -25 633 140 m 285 -289 q 358 -219 328 -289 q 389 -37 389 -150 q 366 192 389 76 q 311 372 343 307 l 228 -104 q 219 -189 219 -153 q 285 -289 219 -289 z "},"g":{"ha":774,"x_min":-11,"x_max":764,"o":"m 642 -22 q 502 -301 611 -199 q 253 -404 393 -404 q 51 -353 113 -404 q -11 -218 -11 -301 q 144 -6 -11 -96 q 26 174 26 32 q 33 250 26 208 l 61 413 q 164 612 83 538 q 373 686 244 686 q 549 624 501 686 l 557 668 l 764 668 l 642 -22 m 275 281 q 272 246 272 268 q 293 202 272 224 q 363 181 314 181 q 449 219 413 181 l 490 453 q 417 488 471 488 q 332 460 363 488 q 293 385 301 432 l 275 281 m 285 -206 q 403 -42 375 -206 l 417 39 q 224 -143 224 -51 q 240 -188 224 -171 q 285 -206 256 -206 z "},"h":{"ha":860,"x_min":11,"x_max":808,"o":"m 751 178 q 808 192 783 178 l 801 35 q 653 -19 736 -19 q 464 139 464 -19 q 469 199 464 167 l 500 369 q 504 419 504 394 q 434 486 504 486 q 325 439 364 486 l 247 0 l 11 0 l 197 1054 l 433 1054 l 354 606 q 546 688 431 688 q 728 625 686 688 q 757 532 757 583 q 749 438 757 481 l 711 231 q 710 215 710 222 q 751 178 710 178 z "},"i":{"ha":435,"x_min":35,"x_max":432,"o":"m 324 178 q 381 192 356 178 l 374 35 q 225 -19 308 -19 q 61 39 99 -19 q 36 122 36 78 q 42 199 36 165 l 125 668 l 361 668 l 283 231 q 282 215 282 222 q 324 178 282 178 m 153 894 q 192 1024 153 983 q 315 1065 232 1065 q 432 963 432 1065 q 392 835 432 875 q 268 794 353 794 q 153 894 153 794 z "},"j":{"ha":375,"x_min":-176,"x_max":432,"o":"m -46 -399 q -116 -385 -83 -399 q -162 -358 -149 -372 l -176 -344 l -128 -187 q -75 -201 -111 -201 q -17 -149 -26 -201 l 128 668 l 364 668 l 214 -181 q 137 -340 196 -281 q -46 -399 78 -399 m 153 894 q 192 1024 153 983 q 315 1065 232 1065 q 432 963 432 1065 q 392 835 432 875 q 268 794 351 794 q 153 894 153 794 z "},"k":{"ha":836,"x_min":11,"x_max":760,"o":"m 696 178 q 753 192 728 178 l 746 35 q 586 -19 681 -19 q 447 31 492 -19 q 376 199 401 81 l 372 218 q 285 211 343 214 l 247 0 l 11 0 l 197 1054 l 433 1054 l 353 597 q 575 688 435 688 q 715 641 669 688 q 760 517 760 594 q 603 282 760 367 l 618 231 q 696 178 633 178 m 456 499 q 322 428 381 499 l 307 336 q 513 446 513 344 q 498 484 513 469 q 456 499 483 499 z "},"l":{"ha":443,"x_min":42,"x_max":436,"o":"m 289 214 q 326 178 289 178 q 388 192 363 178 l 381 35 q 231 -19 314 -19 q 67 39 104 -19 q 43 121 43 76 q 49 199 43 165 l 200 1054 l 436 1054 l 290 231 q 289 214 289 222 z "},"m":{"ha":1289,"x_min":11,"x_max":1238,"o":"m 1181 178 q 1238 192 1213 178 l 1231 35 q 1082 -19 1165 -19 q 893 139 893 -19 q 899 199 893 167 l 928 369 q 932 419 932 394 q 859 486 932 486 q 744 429 786 486 l 669 0 l 433 0 l 499 369 q 503 419 503 394 q 428 486 503 486 q 325 440 368 486 l 247 0 l 11 0 l 129 668 l 349 668 l 333 585 q 544 688 417 688 q 750 568 725 688 q 973 688 833 688 q 1154 625 1113 688 q 1182 531 1182 582 q 1175 438 1182 479 l 1140 231 q 1139 215 1139 222 q 1181 178 1139 178 z "},"n":{"ha":831,"x_min":11,"x_max":779,"o":"m 478 426 q 420 486 478 486 q 325 443 363 486 l 247 0 l 11 0 l 129 668 l 349 668 l 333 586 q 540 688 415 688 q 703 626 665 688 q 726 538 726 588 q 719 444 726 488 l 682 231 q 681 215 681 222 q 722 178 681 178 q 779 192 754 178 l 772 35 q 624 -19 707 -19 q 435 139 435 -19 q 440 199 435 167 l 474 383 q 478 426 478 408 z "},"o":{"ha":783,"x_min":24,"x_max":732,"o":"m 446 688 q 672 622 596 688 q 732 479 732 571 q 725 413 732 449 l 696 250 q 573 42 669 103 q 315 -19 476 -19 q 79 42 154 -19 q 24 179 24 88 q 31 250 24 211 l 60 413 q 446 688 108 688 m 483 385 q 486 420 486 399 q 468 468 486 442 q 405 494 450 494 q 329 465 360 494 q 290 385 299 435 l 272 281 q 269 245 269 267 q 288 199 269 224 q 351 174 306 174 q 426 205 396 174 q 465 281 457 236 l 483 385 z "},"p":{"ha":800,"x_min":-57,"x_max":747,"o":"m 513 686 q 708 611 654 686 q 747 481 747 560 q 740 413 747 449 l 713 250 q 611 49 689 118 q 417 -19 533 -19 q 254 43 300 -19 l 179 -386 l -57 -386 l 129 668 l 343 668 l 336 631 q 513 686 401 686 m 368 181 q 440 206 407 181 q 482 281 474 231 l 500 385 q 503 419 503 399 q 485 464 503 440 q 422 488 467 488 q 328 453 350 488 l 286 219 q 368 181 306 181 z "},"q":{"ha":771,"x_min":21,"x_max":760,"o":"m 243 -19 q 60 50 114 -19 q 22 176 22 99 q 29 250 22 210 l 58 413 q 160 612 81 538 q 369 686 240 686 q 543 626 497 686 l 550 668 l 760 668 l 574 -386 l 338 -386 l 414 43 q 243 -19 343 -19 m 271 281 q 268 246 268 268 q 289 202 268 224 q 359 181 310 181 q 444 219 408 181 l 486 453 q 414 488 471 488 q 289 385 307 488 l 271 281 z "},"r":{"ha":714,"x_min":11,"x_max":704,"o":"m 704 526 q 688 435 704 479 q 657 369 672 390 l 642 350 l 432 350 q 467 429 467 382 q 451 470 467 454 q 407 486 435 486 q 325 439 360 486 l 247 0 l 11 0 l 129 668 l 349 668 l 332 575 q 524 688 411 688 q 659 644 614 688 q 704 526 704 601 z "},"s":{"ha":763,"x_min":10,"x_max":725,"o":"m 725 524 q 697 439 725 478 l 469 439 q 481 467 481 447 q 458 498 481 486 q 401 510 436 510 q 297 446 297 510 q 336 410 297 421 q 431 392 375 399 q 542 372 486 385 q 636 319 597 358 q 675 215 675 281 q 583 40 675 100 q 314 -19 490 -19 q 67 38 138 -19 q 11 160 11 82 q 15 206 11 182 l 247 208 q 270 174 244 189 q 346 160 296 160 q 418 170 396 160 q 440 210 440 181 q 401 237 440 229 q 306 250 363 244 q 194 268 250 256 q 99 321 138 281 q 60 426 60 361 q 158 621 60 553 q 440 689 256 689 q 725 524 725 689 z "},"t":{"ha":763,"x_min":42,"x_max":740,"o":"m 328 -19 q 96 53 167 -19 q 43 194 43 106 q 49 257 43 224 l 143 794 l 397 900 l 357 668 l 740 668 l 706 472 l 322 472 l 294 315 q 289 268 289 289 q 372 181 289 181 q 447 218 417 181 q 488 318 476 256 l 718 318 q 328 -19 660 -19 z "},"u":{"ha":854,"x_min":36,"x_max":799,"o":"m 700 214 q 737 178 700 178 q 799 192 774 178 l 792 35 q 642 -19 725 -19 q 471 101 485 -19 q 247 -19 388 -19 q 64 44 106 -19 q 36 136 36 85 q 44 231 36 188 l 122 668 l 358 668 l 293 299 q 289 249 289 274 q 364 182 289 182 q 464 225 426 182 l 543 668 l 779 668 l 701 231 q 700 214 700 222 z "},"v":{"ha":801,"x_min":44,"x_max":754,"o":"m 735 668 q 754 513 754 610 q 731 328 754 417 q 659 159 707 239 q 526 30 611 79 q 329 -19 440 -19 q 89 51 156 -19 q 44 196 44 99 q 56 300 44 242 l 121 668 l 357 668 l 292 299 q 288 261 288 278 q 369 182 288 182 q 514 485 514 182 q 503 642 514 556 l 499 668 l 735 668 z "},"w":{"ha":1233,"x_min":43,"x_max":1185,"o":"m 1165 668 q 1185 513 1185 610 q 1161 328 1185 417 q 1090 159 1138 239 q 956 30 1042 79 q 760 -19 871 -19 q 538 74 593 -19 q 314 -19 438 -19 q 85 51 147 -19 q 43 192 43 99 q 54 300 43 240 l 119 668 l 356 668 l 290 299 q 286 261 286 278 q 368 182 286 182 q 454 231 425 182 q 504 404 483 281 l 551 668 l 788 668 l 722 299 q 718 261 718 278 q 800 182 718 182 q 944 485 944 182 q 933 642 944 556 l 929 668 l 1165 668 z "},"x":{"ha":811,"x_min":-57,"x_max":844,"o":"m 725 0 l 467 0 l 368 193 l 201 0 l -57 0 l 243 342 l 63 678 l 325 678 l 419 488 l 582 678 l 844 678 l 543 340 l 725 0 z "},"y":{"ha":792,"x_min":7,"x_max":782,"o":"m 296 299 q 292 249 292 274 q 367 182 292 182 q 468 225 428 182 l 546 668 l 782 668 l 660 -22 q 520 -301 629 -199 q 271 -404 411 -404 q 69 -353 131 -404 q 7 -218 7 -301 q 153 -8 7 -100 q 53 71 74 11 q 40 146 40 104 q 47 231 40 188 l 125 668 l 361 668 l 296 299 m 303 -206 q 421 -42 393 -206 l 435 39 q 242 -143 242 -51 q 258 -188 242 -171 q 303 -206 274 -206 z "},"z":{"ha":751,"x_min":-8,"x_max":733,"o":"m 615 0 l -8 0 l 26 194 l 418 474 l 75 474 l 110 668 l 733 668 l 699 474 l 319 194 l 650 194 l 615 0 z "},"{":{"ha":538,"x_min":-4,"x_max":603,"o":"m 113 -322 q 36 -149 36 -267 q 44 -67 36 -110 l 82 147 q 85 180 85 160 q 65 220 85 200 q 10 240 44 240 l -4 240 l 29 429 l 43 429 q 110 453 79 429 q 149 522 140 476 l 186 733 q 344 989 219 917 q 603 1053 458 1053 l 565 840 q 397 685 425 840 l 358 467 q 269 336 340 360 q 289 319 278 333 q 314 236 314 289 q 311 203 314 219 l 272 -18 q 268 -65 268 -43 q 386 -174 268 -174 l 349 -386 q 113 -322 203 -386 z "},"|":{"ha":389,"x_min":-50,"x_max":413,"o":"m 158 -386 l -50 -386 l 204 1054 l 413 1054 l 158 -386 z "},"}":{"ha":538,"x_min":-93,"x_max":515,"o":"m 194 424 q 199 467 194 443 l 238 685 q 242 732 242 710 q 124 840 242 840 l 161 1053 q 397 989 307 1053 q 474 813 474 933 q 465 733 474 776 l 428 522 q 425 490 425 510 q 445 449 425 469 q 501 429 465 429 l 515 429 l 482 240 l 468 240 q 401 217 432 240 q 363 147 371 193 l 325 -67 q 267 -222 308 -157 q 167 -322 225 -287 q -93 -386 54 -386 l -56 -174 q 114 -18 86 -174 l 153 203 q 180 274 160 242 q 217 321 200 307 q 240 336 233 335 q 194 424 194 357 z "},"~":{"ha":732,"x_min":54,"x_max":679,"o":"m 569 311 q 544 301 569 311 q 473 292 518 292 q 353 322 428 292 q 231 351 279 351 q 78 325 149 351 l 54 315 l 82 469 q 99 490 88 478 q 156 524 111 503 q 258 544 201 544 q 399 513 315 544 q 533 481 483 481 q 617 491 582 481 q 667 511 653 501 l 679 522 l 651 356 q 569 311 621 331 z "},"¡":{"ha":392,"x_min":-65,"x_max":356,"o":"m 86 304 l 271 304 l 171 -431 l -65 -431 l 86 304 m 356 588 q 317 458 356 499 q 193 417 278 417 q 76 519 76 417 q 116 647 76 607 q 240 688 156 688 q 356 588 356 688 z "},"¢":{"ha":747,"x_min":13,"x_max":719,"o":"m 511 683 q 718 492 718 657 q 714 440 718 468 l 474 410 q 475 426 475 418 q 444 479 475 463 l 394 192 q 435 243 431 211 l 665 240 q 389 -14 626 15 l 367 -139 l 186 -139 l 208 -12 q 14 181 14 15 q 19 240 14 208 l 50 413 q 331 679 90 638 l 360 847 l 540 847 l 511 683 m 260 256 q 285 197 260 218 l 332 469 q 281 382 290 442 l 263 281 q 260 256 260 267 z "},"£":{"ha":836,"x_min":-4,"x_max":849,"o":"m 849 826 q 844 782 849 806 l 603 744 q 604 766 604 753 q 590 794 604 779 q 542 810 575 810 q 482 790 510 810 q 447 731 454 769 l 436 668 l 736 668 l 697 451 l 397 451 l 357 217 l 742 217 l 703 0 l -4 0 l 35 217 l 107 217 l 147 451 l 75 451 l 114 668 l 186 668 l 197 733 q 313 938 221 867 q 563 1009 406 1008 q 792 951 719 1010 q 849 826 849 906 z "},"¤":{"ha":754,"x_min":15,"x_max":746,"o":"m 489 197 q 333 156 414 156 q 192 200 251 156 l 83 108 l 15 192 l 124 283 q 101 392 101 331 q 172 578 101 486 l 97 668 l 201 756 l 274 665 q 432 711 350 711 q 574 667 514 711 l 676 754 l 746 671 l 644 583 q 667 472 667 535 q 588 279 667 375 l 661 192 l 563 108 l 489 197 m 365 281 q 396 281 365 281 q 483 333 428 281 q 539 447 539 385 q 503 548 539 510 q 403 586 467 586 q 285 533 340 586 q 229 418 229 481 q 265 318 229 356 q 365 281 301 281 z "},"¥":{"ha":953,"x_min":111,"x_max":1025,"o":"m 694 132 l 553 132 l 529 0 l 278 0 l 301 132 l 131 132 l 158 296 l 329 296 l 344 379 l 111 379 l 140 543 l 292 543 l 135 1000 l 400 1000 l 508 649 l 540 649 l 775 1000 l 1025 1000 l 707 543 l 836 543 l 807 379 l 596 379 l 581 296 l 722 296 l 694 132 z "},"¦":{"ha":392,"x_min":-49,"x_max":414,"o":"m 308 456 l 100 456 l 206 1054 l 414 1054 l 308 456 m 65 260 l 274 260 l 160 -386 l -49 -386 l 65 260 z "},"§":{"ha":915,"x_min":-29,"x_max":897,"o":"m 229 -106 q 367 -201 229 -201 q 506 -115 506 -201 q 458 -40 506 -69 q 344 8 411 -11 q 209 53 276 28 q 94 134 142 79 q 47 271 47 189 q 160 522 47 425 q 115 661 115 575 q 225 918 115 826 q 565 1010 335 1010 q 813 948 729 1010 q 897 776 897 886 q 886 699 897 736 q 864 647 875 663 l 853 631 l 607 631 q 638 711 638 663 q 519 801 638 801 q 372 707 372 801 q 419 632 372 660 q 534 588 467 604 q 669 549 601 572 q 785 470 738 525 q 832 328 832 415 q 724 75 832 171 q 763 -62 763 22 q 657 -324 763 -239 q 332 -410 551 -410 q 31 -331 113 -410 q -28 -171 -28 -274 q -19 -86 -28 -132 l -15 -64 l 235 -64 l 232 -81 q 229 -106 229 -94 m 575 275 q 494 368 575 335 q 389 404 451 386 q 303 317 303 386 q 360 236 303 263 q 488 193 403 215 q 575 275 575 208 z "},"¨":{"ha":747,"x_min":224,"x_max":839,"o":"m 224 864 q 256 967 224 935 q 354 1000 288 1000 q 447 919 447 1000 q 415 816 447 849 q 315 783 383 783 q 224 864 224 783 m 615 864 q 647 967 615 935 q 746 1000 679 1000 q 839 919 839 1000 q 807 816 839 849 q 707 783 775 783 q 615 864 615 783 z "},"©":{"ha":985,"x_min":65,"x_max":967,"o":"m 124 692 q 269 922 149 832 q 600 1013 389 1013 q 899 922 811 1013 q 967 751 967 851 q 961 692 967 722 l 911 407 q 765 160 882 242 q 432 78 649 78 q 131 161 215 78 q 67 329 67 222 q 74 407 67 365 l 124 692 m 224 386 q 221 347 221 369 q 239 292 221 324 q 300 244 257 261 q 439 214 376 214 q 543 221 501 214 q 632 244 585 228 q 713 298 679 261 q 757 386 747 335 l 810 686 q 813 727 813 706 q 803 777 813 749 q 772 824 793 806 q 713 851 750 842 q 621 865 658 865 q 564 865 583 865 q 524 865 544 865 q 467 860 504 864 q 404 844 431 856 q 350 814 378 832 q 276 686 294 776 l 224 386 m 681 461 q 476 313 653 313 q 350 353 386 313 q 326 417 326 381 q 331 478 326 453 l 357 626 q 569 789 385 789 q 680 757 643 789 q 717 669 717 725 q 697 581 717 624 l 690 568 l 561 568 q 582 635 582 594 q 547 675 582 675 q 486 618 496 675 l 463 488 q 461 468 461 476 q 499 426 461 426 q 556 482 546 426 l 685 482 l 681 461 z "},"ª":{"ha":518,"x_min":122,"x_max":524,"o":"m 475 783 q 494 763 475 763 l 524 769 l 518 683 q 431 657 481 657 q 344 713 356 657 q 240 657 313 657 q 124 756 124 657 q 126 792 124 772 l 140 872 q 193 972 151 935 q 299 1010 235 1010 q 390 979 364 1010 l 394 1000 l 513 1000 l 476 796 q 475 783 475 789 m 261 800 q 300 764 261 764 q 342 782 324 764 l 360 886 q 318 903 350 903 q 269 851 278 903 l 263 814 q 261 800 261 807 z "},"«":{"ha":717,"x_min":43,"x_max":683,"o":"m 206 117 l 43 315 l 61 419 l 293 618 l 363 510 l 196 367 l 313 225 l 206 117 m 526 117 l 364 315 l 382 419 l 614 618 l 683 510 l 517 367 l 633 225 l 526 117 z "},"¬":{"ha":833,"x_min":43,"x_max":760,"o":"m 521 63 l 561 290 l 43 290 l 74 465 l 760 465 l 689 63 l 521 63 z "},"®":{"ha":985,"x_min":65,"x_max":967,"o":"m 124 692 q 269 922 149 832 q 600 1013 389 1013 q 899 922 811 1013 q 967 751 967 851 q 961 692 967 722 l 911 407 q 765 160 882 242 q 432 78 649 78 q 131 161 215 78 q 67 329 67 222 q 74 407 67 365 l 124 692 m 224 386 q 221 347 221 369 q 239 292 221 324 q 300 244 257 261 q 439 214 376 214 q 543 221 501 214 q 632 244 585 228 q 713 298 679 261 q 757 386 747 335 l 810 686 q 813 727 813 706 q 803 777 813 749 q 772 824 793 806 q 713 851 750 842 q 621 865 658 865 q 564 865 583 865 q 524 865 544 865 q 467 860 504 864 q 404 844 431 856 q 350 814 378 832 q 276 686 294 776 l 224 386 m 572 779 q 679 751 649 779 q 710 685 710 722 q 707 661 710 674 l 699 613 q 633 504 686 536 l 689 326 l 549 326 l 500 482 l 456 482 l 432 326 l 297 326 l 376 779 l 572 779 m 532 667 l 485 667 l 468 572 l 514 572 q 575 632 575 572 q 532 667 575 667 z "},"°":{"ha":478,"x_min":115,"x_max":503,"o":"m 333 1007 q 372 1007 333 1007 q 457 959 411 1007 q 503 833 503 911 q 433 690 503 754 q 284 625 363 625 q 160 672 206 625 q 115 797 115 718 q 185 941 115 875 q 333 1007 254 1007 m 301 747 q 315 747 301 747 q 354 771 329 747 q 379 822 379 794 q 363 867 379 850 q 317 885 346 885 q 264 861 289 885 q 239 809 239 838 q 256 764 239 781 q 301 747 272 747 z "},"±":{"ha":671,"x_min":18,"x_max":640,"o":"m 239 326 l 271 506 l 96 506 l 125 669 l 300 669 l 329 842 l 493 842 l 464 669 l 640 669 l 611 506 l 435 506 l 403 326 l 239 326 m 533 67 l 18 67 l 47 231 l 563 231 l 533 67 z "},"²":{"ha":525,"x_min":93,"x_max":540,"o":"m 357 777 q 378 793 357 777 q 399 849 399 808 q 347 889 399 889 q 294 868 313 889 q 275 811 275 847 l 279 782 l 143 782 q 139 825 139 799 q 197 960 139 910 q 364 1010 256 1010 q 540 872 540 1010 q 503 768 540 815 q 423 697 467 721 q 340 654 379 674 q 300 628 301 635 l 486 628 l 464 506 l 93 506 l 103 557 q 163 663 114 619 q 264 726 213 707 q 357 777 315 746 z "},"³":{"ha":515,"x_min":97,"x_max":532,"o":"m 240 663 q 294 617 232 617 q 340 632 322 617 q 358 671 358 647 q 313 706 358 706 l 242 706 l 256 781 l 311 781 q 367 801 344 782 q 389 844 389 821 q 332 889 389 889 q 275 835 275 889 l 279 813 l 142 813 q 139 844 139 825 q 196 965 139 921 q 348 1010 253 1010 q 488 975 443 1010 q 532 885 532 940 q 499 787 532 831 q 424 743 465 743 l 424 742 q 476 719 457 742 q 494 658 494 696 q 269 494 494 494 q 136 531 175 494 q 97 622 97 567 q 101 663 97 640 l 240 663 z "},"´":{"ha":558,"x_min":208,"x_max":686,"o":"m 414 789 l 208 789 l 436 1121 l 686 1121 l 414 789 z "},"µ":{"ha":825,"x_min":-57,"x_max":786,"o":"m 254 -19 l 244 -19 l 179 -386 l -57 -386 l 129 668 l 365 668 l 300 299 q 296 249 296 274 q 371 182 296 182 q 472 225 432 182 l 550 668 l 786 668 l 669 0 l 463 0 l 481 104 q 254 -19 397 -19 z "},"¶":{"ha":1042,"x_min":67,"x_max":1050,"o":"m 350 304 q 128 378 204 304 q 68 521 68 438 q 72 568 68 543 l 100 725 q 214 926 122 853 q 464 1000 306 1000 l 796 1000 l 619 0 l 461 0 l 515 304 l 350 304 m 719 0 l 897 1010 l 1050 1010 l 872 0 l 719 0 z "},"·":{"ha":397,"x_min":68,"x_max":347,"o":"m 68 431 q 108 560 68 519 q 231 601 147 601 q 347 499 347 601 q 308 371 347 411 q 183 331 268 331 q 68 431 68 331 z "},"¸":{"ha":440,"x_min":33,"x_max":349,"o":"m 349 -118 q 295 -231 349 -193 q 185 -269 242 -269 q 94 -253 128 -269 q 47 -219 60 -236 l 33 -204 l 113 -122 q 135 -154 117 -139 q 176 -169 154 -169 q 242 -125 242 -169 q 163 -85 242 -85 l 219 11 l 299 11 l 269 -33 q 327 -55 306 -33 q 349 -118 349 -76 z "},"¹":{"ha":428,"x_min":110,"x_max":449,"o":"m 361 500 l 215 500 l 269 813 q 209 760 253 785 q 117 735 165 735 l 110 872 q 232 912 175 872 q 303 1000 289 951 l 449 1000 l 361 500 z "},"º":{"ha":463,"x_min":121,"x_max":489,"o":"m 336 1010 q 488 904 488 1010 q 485 872 488 889 l 471 790 q 274 656 447 656 q 122 757 122 656 q 125 790 122 772 l 139 872 q 336 1010 163 1007 m 258 793 q 293 760 258 760 q 326 773 313 760 q 342 806 339 786 l 351 858 q 353 871 353 865 q 318 906 353 906 q 269 858 278 906 l 260 806 q 258 793 258 799 z "},"»":{"ha":717,"x_min":18,"x_max":658,"o":"m 639 315 l 407 117 l 339 225 l 506 367 l 389 510 l 496 618 l 658 419 l 639 315 m 318 315 l 86 117 l 18 225 l 185 367 l 68 510 l 175 618 l 338 419 l 318 315 z "},"¼":{"ha":1096,"x_min":106,"x_max":1022,"o":"m 106 0 l 828 1010 l 1022 1010 l 300 0 l 106 0 m 364 500 l 218 500 l 274 813 q 213 760 257 785 q 119 735 168 735 l 114 872 q 236 912 179 872 q 307 1000 293 951 l 453 1000 l 364 500 m 917 0 l 772 0 l 788 88 l 576 88 l 606 249 l 804 500 l 950 500 l 747 228 l 740 188 l 815 188 l 832 283 l 967 283 l 950 188 l 1019 188 l 1001 88 l 932 88 l 917 0 z "},"½":{"ha":1083,"x_min":71,"x_max":1028,"o":"m 71 0 l 793 1010 l 988 1010 l 265 0 l 71 0 m 365 500 l 219 500 l 275 813 q 214 760 258 785 q 121 735 169 735 l 115 872 q 238 912 181 872 q 308 1000 294 951 l 454 1000 l 365 500 m 844 272 q 865 287 844 272 q 886 343 886 303 q 835 383 886 383 q 781 363 800 383 q 763 306 763 342 l 767 276 l 631 276 q 626 319 626 293 q 685 454 626 404 q 851 504 743 504 q 1028 367 1028 504 q 991 263 1028 310 q 910 192 954 215 q 828 149 867 168 q 788 122 789 129 l 974 122 l 951 0 l 581 0 l 590 51 q 651 158 601 114 q 751 221 700 201 q 844 272 803 240 z "},"¾":{"ha":1076,"x_min":88,"x_max":1006,"o":"m 89 0 l 811 1010 l 1006 1010 l 283 0 l 89 0 m 231 663 q 283 617 222 617 q 331 632 313 617 q 349 671 349 647 q 303 706 349 706 l 232 706 l 246 781 l 301 781 q 357 801 335 782 q 379 844 379 821 q 322 889 379 889 q 265 835 265 889 l 269 813 l 132 813 q 129 844 129 825 q 186 965 129 921 q 338 1010 243 1010 q 478 975 433 1010 q 522 885 522 940 q 489 787 522 831 q 414 743 456 743 l 414 742 q 466 719 447 742 q 485 658 485 696 q 260 494 485 494 q 126 531 165 494 q 88 622 88 567 q 92 663 88 640 l 231 663 m 900 0 l 756 0 l 771 88 l 560 88 l 588 249 l 788 500 l 933 500 l 731 228 l 724 188 l 799 188 l 815 283 l 950 283 l 933 188 l 1003 188 l 985 88 l 915 88 l 900 0 z "},"¿":{"ha":817,"x_min":-71,"x_max":689,"o":"m 444 -53 q 435 6 444 -21 l 681 6 q 689 -81 689 -28 q 576 -335 689 -242 q 254 -429 464 -429 q 9 -367 89 -429 q -71 -197 -71 -306 q -34 -56 -71 -121 q 57 53 3 10 q 165 132 111 96 q 261 203 219 168 q 308 269 303 238 l 325 360 l 558 360 l 543 269 q 492 153 531 201 q 406 80 453 106 q 314 29 360 54 q 208 -139 208 -29 q 306 -214 208 -214 q 408 -170 372 -214 q 444 -53 444 -126 m 621 588 q 581 458 621 499 q 458 417 542 417 q 342 519 342 417 q 381 647 342 607 q 506 688 421 688 q 621 588 621 688 z "},"À":{"ha":890,"x_min":-36,"x_max":785,"o":"m 521 0 l 529 218 l 297 218 l 229 0 l -36 0 l 321 1000 l 779 1000 l 785 0 l 521 0 m 464 757 l 354 404 l 536 404 l 551 757 l 464 757 m 672 1121 l 467 1121 l 311 1453 l 561 1453 l 672 1121 z "},"Á":{"ha":890,"x_min":-36,"x_max":922,"o":"m 521 0 l 529 218 l 297 218 l 229 0 l -36 0 l 321 1000 l 779 1000 l 785 0 l 521 0 m 464 757 l 354 404 l 536 404 l 551 757 l 464 757 m 650 1121 l 444 1121 l 672 1453 l 922 1453 l 650 1121 z "},"Â":{"ha":890,"x_min":-36,"x_max":864,"o":"m 521 0 l 529 218 l 297 218 l 229 0 l -36 0 l 321 1000 l 779 1000 l 785 0 l 521 0 m 464 757 l 354 404 l 536 404 l 551 757 l 464 757 m 475 1121 l 276 1121 l 503 1453 l 754 1453 l 864 1121 l 665 1121 l 599 1285 l 475 1121 z "},"Ã":{"ha":890,"x_min":-36,"x_max":908,"o":"m 521 0 l 529 218 l 297 218 l 229 0 l -36 0 l 321 1000 l 779 1000 l 785 0 l 521 0 m 464 757 l 354 404 l 536 404 l 551 757 l 464 757 m 799 1163 q 773 1153 799 1163 q 703 1143 747 1143 q 583 1173 658 1143 q 461 1203 508 1203 q 307 1175 378 1203 l 283 1167 l 311 1321 q 328 1342 317 1329 q 385 1375 340 1354 q 488 1396 431 1396 q 628 1364 544 1396 q 762 1332 713 1332 q 847 1342 811 1332 q 894 1364 882 1353 l 908 1374 l 881 1207 q 799 1163 850 1182 z "},"Ä":{"ha":890,"x_min":-36,"x_max":904,"o":"m 521 0 l 529 218 l 297 218 l 229 0 l -36 0 l 321 1000 l 779 1000 l 785 0 l 521 0 m 464 757 l 354 404 l 536 404 l 551 757 l 464 757 m 289 1196 q 321 1299 289 1267 q 419 1332 353 1332 q 513 1251 513 1332 q 481 1148 513 1181 q 381 1115 449 1115 q 289 1196 289 1115 m 681 1196 q 713 1299 681 1267 q 811 1332 744 1332 q 904 1251 904 1332 q 872 1148 904 1181 q 772 1115 840 1115 q 681 1196 681 1115 z "},"Å":{"ha":890,"x_min":-36,"x_max":785,"o":"m 521 0 l 529 218 l 297 218 l 229 0 l -36 0 l 321 1000 l 779 1000 l 785 0 l 521 0 m 464 757 l 354 404 l 536 404 l 551 757 l 464 757 m 756 1260 q 756 1229 756 1260 q 701 1146 756 1197 q 583 1094 646 1094 q 483 1131 519 1094 q 447 1231 447 1168 q 502 1346 447 1294 q 621 1397 557 1397 q 720 1360 685 1397 q 756 1260 756 1324 m 595 1193 q 607 1193 595 1193 q 637 1210 618 1193 q 656 1251 656 1228 q 643 1286 656 1274 q 608 1299 631 1299 q 566 1281 585 1299 q 547 1241 547 1264 q 560 1206 547 1218 q 595 1193 572 1193 z "},"Æ":{"ha":1250,"x_min":-36,"x_max":1293,"o":"m 1117 0 l 521 0 l 529 218 l 297 218 l 229 0 l -36 0 l 321 1000 l 1293 1000 l 1254 783 l 779 783 l 782 596 l 1144 596 l 1106 379 l 782 379 l 783 217 l 1156 217 l 1117 0 m 464 757 l 354 404 l 536 404 l 551 757 l 464 757 z "},"Ç":{"ha":900,"x_min":49,"x_max":896,"o":"m 488 -118 q 434 -231 488 -193 q 324 -269 381 -269 q 233 -253 267 -269 q 186 -219 199 -236 l 172 -204 l 251 -122 q 274 -154 256 -139 q 315 -169 293 -169 q 381 -125 381 -169 q 301 -85 381 -85 l 340 -18 q 94 75 163 -11 q 50 235 50 135 q 60 339 50 282 l 117 658 q 568 1010 179 1010 q 813 941 729 1010 q 896 753 896 872 q 880 642 896 697 q 849 561 864 588 l 833 533 l 588 533 q 633 683 633 586 q 607 765 633 735 q 529 794 581 794 q 363 639 389 794 l 314 358 q 307 288 307 322 q 417 196 307 196 q 575 344 549 196 l 825 344 l 818 304 q 418 -18 764 -1 l 408 -33 q 466 -55 444 -33 q 488 -118 488 -76 z "},"È":{"ha":857,"x_min":26,"x_max":900,"o":"m 724 0 l 26 0 l 203 1000 l 900 1000 l 861 783 l 414 783 l 382 596 l 751 596 l 713 379 l 343 379 l 315 217 l 763 217 l 724 0 m 682 1121 l 476 1121 l 321 1453 l 571 1453 l 682 1121 z "},"É":{"ha":857,"x_min":26,"x_max":944,"o":"m 724 0 l 26 0 l 203 1000 l 900 1000 l 861 783 l 414 783 l 382 596 l 751 596 l 713 379 l 343 379 l 315 217 l 763 217 l 724 0 m 672 1121 l 467 1121 l 694 1453 l 944 1453 l 672 1121 z "},"Ê":{"ha":857,"x_min":26,"x_max":911,"o":"m 724 0 l 26 0 l 203 1000 l 900 1000 l 861 783 l 414 783 l 382 596 l 751 596 l 713 379 l 343 379 l 315 217 l 763 217 l 724 0 m 522 1121 l 324 1121 l 550 1453 l 801 1453 l 911 1121 l 713 1121 l 646 1285 l 522 1121 z "},"Ë":{"ha":857,"x_min":26,"x_max":968,"o":"m 724 0 l 26 0 l 203 1000 l 900 1000 l 861 783 l 414 783 l 382 596 l 751 596 l 713 379 l 343 379 l 315 217 l 763 217 l 724 0 m 353 1196 q 385 1299 353 1267 q 483 1332 417 1332 q 576 1251 576 1332 q 544 1148 576 1181 q 444 1115 513 1115 q 353 1196 353 1115 m 744 1196 q 776 1299 744 1267 q 875 1332 808 1332 q 968 1251 968 1332 q 936 1148 968 1181 q 836 1115 904 1115 q 744 1196 744 1115 z "},"Ì":{"ha":447,"x_min":26,"x_max":453,"o":"m 453 1000 l 278 0 l 26 0 l 203 1000 l 453 1000 m 428 1121 l 222 1121 l 67 1453 l 317 1453 l 428 1121 z "},"Í":{"ha":447,"x_min":26,"x_max":719,"o":"m 453 1000 l 278 0 l 26 0 l 203 1000 l 453 1000 m 447 1121 l 242 1121 l 469 1453 l 719 1453 l 447 1121 z "},"Î":{"ha":447,"x_min":26,"x_max":646,"o":"m 453 1000 l 278 0 l 26 0 l 203 1000 l 453 1000 m 257 1121 l 58 1121 l 285 1453 l 536 1453 l 646 1121 l 447 1121 l 381 1285 l 257 1121 z "},"Ï":{"ha":447,"x_min":26,"x_max":671,"o":"m 453 1000 l 278 0 l 26 0 l 203 1000 l 453 1000 m 56 1196 q 88 1299 56 1267 q 186 1332 119 1332 q 279 1251 279 1332 q 247 1148 279 1181 q 147 1115 215 1115 q 56 1196 56 1115 m 447 1196 q 479 1299 447 1267 q 578 1332 511 1332 q 671 1251 671 1332 q 639 1148 671 1181 q 539 1115 607 1115 q 447 1196 447 1115 z "},"Ð":{"ha":929,"x_min":26,"x_max":910,"o":"m 592 1000 q 851 908 774 1000 q 908 735 908 839 q 901 656 908 697 l 847 346 q 711 94 819 189 q 431 0 603 0 l 26 0 l 203 1000 l 592 1000 m 447 217 q 549 252 513 217 q 600 368 586 288 l 640 596 q 646 651 646 626 q 504 783 646 783 l 414 783 l 379 585 l 529 585 l 499 410 l 349 410 l 315 217 l 447 217 z "},"Ñ":{"ha":968,"x_min":26,"x_max":974,"o":"m 974 1000 l 799 0 l 547 0 l 372 547 l 278 0 l 26 0 l 203 1000 l 461 1000 l 633 489 l 724 1000 l 974 1000 m 847 1163 q 822 1153 847 1163 q 751 1143 796 1143 q 632 1173 707 1143 q 510 1203 557 1203 q 356 1176 426 1203 l 332 1167 l 360 1321 q 377 1342 365 1329 q 434 1375 389 1354 q 536 1396 479 1396 q 677 1364 593 1396 q 810 1332 761 1332 q 895 1342 860 1332 q 943 1363 931 1353 l 957 1374 l 929 1207 q 847 1163 899 1182 z "},"Ò":{"ha":922,"x_min":63,"x_max":892,"o":"m 567 1010 q 901 736 901 1010 q 892 638 901 690 l 843 360 q 699 74 810 167 q 386 -19 588 -19 q 106 74 185 -19 q 51 250 51 138 q 63 360 51 300 l 111 638 q 567 1010 176 1010 m 424 196 q 535 232 493 196 q 593 365 576 268 l 640 632 q 644 682 644 660 q 531 794 644 794 q 360 632 388 792 l 313 365 q 307 293 307 331 q 424 196 307 196 m 704 1121 l 499 1121 l 343 1453 l 593 1453 l 704 1121 z "},"Ó":{"ha":922,"x_min":51,"x_max":939,"o":"m 567 1010 q 901 736 901 1010 q 892 638 901 690 l 843 360 q 699 74 810 167 q 386 -19 588 -19 q 106 74 185 -19 q 51 250 51 138 q 63 360 51 300 l 111 638 q 567 1010 176 1010 m 424 196 q 535 232 493 196 q 593 365 576 268 l 640 632 q 644 682 644 660 q 531 794 644 794 q 360 632 388 792 l 313 365 q 307 293 307 331 q 424 196 307 196 m 667 1121 l 461 1121 l 689 1453 l 939 1453 l 667 1121 z "},"Ô":{"ha":922,"x_min":63,"x_max":892,"o":"m 567 1010 q 901 736 901 1010 q 892 638 901 690 l 843 360 q 699 74 810 167 q 386 -19 588 -19 q 106 74 185 -19 q 51 250 51 138 q 63 360 51 300 l 111 638 q 567 1010 176 1010 m 424 196 q 535 232 493 196 q 593 365 576 268 l 640 632 q 644 682 644 660 q 531 794 644 794 q 360 632 388 792 l 313 365 q 307 293 307 331 q 424 196 307 196 m 490 1121 l 292 1121 l 518 1453 l 769 1453 l 879 1121 l 681 1121 l 614 1285 l 490 1121 z "},"Õ":{"ha":922,"x_min":51,"x_max":924,"o":"m 567 1010 q 901 736 901 1010 q 892 638 901 690 l 843 360 q 699 74 810 167 q 386 -19 588 -19 q 106 74 185 -19 q 51 250 51 138 q 63 360 51 300 l 111 638 q 567 1010 176 1010 m 424 196 q 535 232 493 196 q 593 365 576 268 l 640 632 q 644 682 644 660 q 531 794 644 794 q 360 632 388 792 l 313 365 q 307 293 307 331 q 424 196 307 196 m 814 1163 q 788 1153 814 1163 q 718 1143 763 1143 q 599 1173 674 1143 q 476 1203 525 1203 q 322 1175 393 1203 l 299 1167 l 326 1321 q 344 1342 332 1329 q 401 1375 356 1354 q 503 1396 446 1396 q 644 1364 560 1396 q 777 1332 728 1332 q 862 1342 826 1332 q 911 1364 897 1353 l 924 1374 l 896 1207 q 814 1163 865 1182 z "},"Ö":{"ha":922,"x_min":63,"x_max":913,"o":"m 567 1010 q 901 736 901 1010 q 892 638 901 690 l 843 360 q 699 74 810 167 q 386 -19 588 -19 q 106 74 185 -19 q 51 250 51 138 q 63 360 51 300 l 111 638 q 567 1010 176 1010 m 424 196 q 535 232 493 196 q 593 365 576 268 l 640 632 q 644 682 644 660 q 531 794 644 794 q 360 632 388 792 l 313 365 q 307 293 307 331 q 424 196 307 196 m 297 1196 q 329 1299 297 1267 q 428 1332 361 1332 q 521 1251 521 1332 q 489 1148 521 1181 q 389 1115 457 1115 q 297 1196 297 1115 m 689 1196 q 721 1299 689 1267 q 819 1332 753 1332 q 913 1251 913 1332 q 881 1148 913 1181 q 781 1115 849 1115 q 689 1196 689 1115 z "},"×":{"ha":590,"x_min":19,"x_max":544,"o":"m 365 103 l 260 229 l 114 106 l 19 222 l 165 346 l 64 468 l 201 583 l 300 461 l 447 586 l 544 471 l 397 346 l 501 219 l 365 103 z "},"Ø":{"ha":922,"x_min":51,"x_max":901,"o":"m 567 1010 q 621 1007 588 1010 l 644 1056 l 835 1056 l 789 961 q 900 735 900 894 q 892 638 900 690 l 843 360 q 699 74 810 167 q 386 -19 588 -19 q 322 -17 361 -19 l 285 -96 l 93 -96 l 154 32 q 53 253 53 96 q 63 360 53 301 l 111 638 q 567 1010 176 1010 m 424 196 q 535 232 493 196 q 593 365 576 268 l 640 632 q 643 656 643 649 l 424 196 m 360 632 l 311 361 l 519 794 q 360 632 388 785 z "},"Ù":{"ha":960,"x_min":81,"x_max":974,"o":"m 716 73 q 661 27 716 73 q 404 -19 606 -19 q 125 74 203 -19 q 69 250 69 138 q 81 360 69 300 l 193 1000 l 443 1000 l 331 365 q 325 293 325 331 q 442 196 325 196 q 553 232 511 196 q 611 365 594 268 l 724 1000 l 974 1000 l 861 360 q 716 73 826 165 m 704 1121 l 499 1121 l 343 1453 l 593 1453 l 704 1121 z "},"Ú":{"ha":960,"x_min":69,"x_max":974,"o":"m 716 73 q 661 27 716 73 q 404 -19 606 -19 q 125 74 203 -19 q 69 250 69 138 q 81 360 69 300 l 193 1000 l 443 1000 l 331 365 q 325 293 325 331 q 442 196 325 196 q 553 232 511 196 q 611 365 594 268 l 724 1000 l 974 1000 l 861 360 q 716 73 826 165 m 678 1121 l 472 1121 l 700 1453 l 950 1453 l 678 1121 z "},"Û":{"ha":960,"x_min":81,"x_max":974,"o":"m 716 73 q 661 27 716 73 q 404 -19 606 -19 q 125 74 203 -19 q 69 250 69 138 q 81 360 69 300 l 193 1000 l 443 1000 l 331 365 q 325 293 325 331 q 442 196 325 196 q 553 232 511 196 q 611 365 594 268 l 724 1000 l 974 1000 l 861 360 q 716 73 826 165 m 508 1121 l 310 1121 l 536 1453 l 788 1453 l 897 1121 l 699 1121 l 632 1285 l 508 1121 z "},"Ü":{"ha":960,"x_min":69,"x_max":974,"o":"m 716 73 q 661 27 716 73 q 404 -19 606 -19 q 125 74 203 -19 q 69 250 69 138 q 81 360 69 300 l 193 1000 l 443 1000 l 331 365 q 325 293 325 331 q 442 196 325 196 q 553 232 511 196 q 611 365 594 268 l 724 1000 l 974 1000 l 861 360 q 716 73 826 165 m 322 1196 q 354 1299 322 1267 q 453 1332 386 1332 q 546 1251 546 1332 q 514 1148 546 1181 q 414 1115 482 1115 q 322 1196 322 1115 m 714 1196 q 746 1299 714 1267 q 844 1332 778 1332 q 938 1251 938 1332 q 906 1148 938 1181 q 806 1115 874 1115 q 714 1196 714 1115 z "},"Ý":{"ha":894,"x_min":104,"x_max":994,"o":"m 510 649 l 744 1000 l 994 1000 l 567 385 l 499 0 l 247 0 l 315 385 l 104 1000 l 369 1000 l 478 649 l 510 649 m 644 1121 l 439 1121 l 667 1453 l 917 1453 l 644 1121 z "},"Þ":{"ha":892,"x_min":25,"x_max":872,"o":"m 599 850 q 822 778 756 850 q 871 636 871 722 q 865 575 871 607 l 838 418 q 715 228 817 303 q 468 154 614 154 l 303 154 l 275 0 l 25 0 l 201 1001 l 451 1001 l 425 850 l 599 850 m 511 633 l 386 633 l 340 371 l 464 371 q 596 472 578 371 l 606 529 q 608 563 608 542 q 588 608 608 583 q 511 633 567 633 z "},"ß":{"ha":896,"x_min":11,"x_max":865,"o":"m 549 1010 q 781 954 686 1010 q 851 869 829 925 q 865 801 865 835 q 860 739 865 768 l 847 672 q 788 549 832 593 q 711 504 744 504 l 710 493 q 789 450 749 493 q 829 349 829 407 q 824 299 829 325 l 815 256 q 709 68 793 136 q 475 0 625 0 q 392 10 425 0 q 353 31 360 21 l 344 42 l 383 258 q 414 230 389 243 q 476 217 439 217 q 544 248 513 217 q 576 322 576 279 q 465 408 576 408 l 417 408 l 446 576 l 465 576 q 600 700 600 576 q 576 767 600 740 q 506 794 553 794 q 378 660 401 794 l 261 0 l 11 0 l 128 658 q 549 1010 190 1010 z "},"à":{"ha":836,"x_min":21,"x_max":781,"o":"m 682 214 q 719 178 682 178 q 781 192 756 178 l 774 35 q 624 -19 707 -19 q 454 92 471 -19 q 250 -19 385 -19 q 22 176 22 -19 q 29 250 22 210 l 58 413 q 160 612 81 538 q 369 686 240 686 q 543 626 497 686 l 550 668 l 761 668 l 683 231 q 682 214 682 222 m 271 281 q 268 246 268 268 q 289 202 268 224 q 359 181 310 181 q 444 219 408 181 l 486 453 q 414 488 471 488 q 289 385 307 488 l 271 281 m 606 789 l 400 789 l 244 1121 l 494 1121 l 606 789 z "},"á":{"ha":836,"x_min":29,"x_max":844,"o":"m 682 214 q 719 178 682 178 q 781 192 756 178 l 774 35 q 624 -19 707 -19 q 454 92 471 -19 q 250 -19 385 -19 q 22 176 22 -19 q 29 250 22 210 l 58 413 q 160 612 81 538 q 369 686 240 686 q 543 626 497 686 l 550 668 l 761 668 l 683 231 q 682 214 682 222 m 271 281 q 268 246 268 268 q 289 202 268 224 q 359 181 310 181 q 444 219 408 181 l 486 453 q 414 488 471 488 q 289 385 307 488 l 271 281 m 572 789 l 367 789 l 594 1121 l 844 1121 l 572 789 z "},"â":{"ha":836,"x_min":29,"x_max":794,"o":"m 682 214 q 719 178 682 178 q 781 192 756 178 l 774 35 q 624 -19 707 -19 q 454 92 471 -19 q 250 -19 385 -19 q 22 176 22 -19 q 29 250 22 210 l 58 413 q 160 612 81 538 q 369 686 240 686 q 543 626 497 686 l 550 668 l 761 668 l 683 231 q 682 214 682 222 m 271 281 q 268 246 268 268 q 289 202 268 224 q 359 181 310 181 q 444 219 408 181 l 486 453 q 414 488 471 488 q 289 385 307 488 l 271 281 m 406 789 l 207 789 l 433 1121 l 685 1121 l 794 789 l 596 789 l 529 953 l 406 789 z "},"ã":{"ha":836,"x_min":29,"x_max":839,"o":"m 682 214 q 719 178 682 178 q 781 192 756 178 l 774 35 q 624 -19 707 -19 q 454 92 471 -19 q 250 -19 385 -19 q 22 176 22 -19 q 29 250 22 210 l 58 413 q 160 612 81 538 q 369 686 240 686 q 543 626 497 686 l 550 668 l 761 668 l 683 231 q 682 214 682 222 m 271 281 q 268 246 268 268 q 289 202 268 224 q 359 181 310 181 q 444 219 408 181 l 486 453 q 414 488 471 488 q 289 385 307 488 l 271 281 m 729 831 q 703 821 729 831 q 633 811 678 811 q 514 841 589 811 q 392 871 439 871 q 238 844 308 871 l 214 835 l 242 989 q 259 1010 247 997 q 316 1043 271 1022 q 418 1064 361 1064 q 559 1032 475 1064 q 692 1000 643 1000 q 777 1010 742 1000 q 825 1031 813 1021 l 839 1042 l 811 875 q 729 831 781 850 z "},"ä":{"ha":836,"x_min":29,"x_max":840,"o":"m 682 214 q 719 178 682 178 q 781 192 756 178 l 774 35 q 624 -19 707 -19 q 454 92 471 -19 q 250 -19 385 -19 q 22 176 22 -19 q 29 250 22 210 l 58 413 q 160 612 81 538 q 369 686 240 686 q 543 626 497 686 l 550 668 l 761 668 l 683 231 q 682 214 682 222 m 271 281 q 268 246 268 268 q 289 202 268 224 q 359 181 310 181 q 444 219 408 181 l 486 453 q 414 488 471 488 q 289 385 307 488 l 271 281 m 225 864 q 257 967 225 935 q 356 1000 289 1000 q 449 919 449 1000 q 417 816 449 849 q 317 783 385 783 q 225 864 225 783 m 617 864 q 649 967 617 935 q 747 1000 681 1000 q 840 919 840 1000 q 808 816 840 849 q 708 783 776 783 q 617 864 617 783 z "},"å":{"ha":836,"x_min":29,"x_max":781,"o":"m 682 214 q 719 178 682 178 q 781 192 756 178 l 774 35 q 624 -19 707 -19 q 454 92 471 -19 q 250 -19 385 -19 q 22 176 22 -19 q 29 250 22 210 l 58 413 q 160 612 81 538 q 369 686 240 686 q 543 626 497 686 l 550 668 l 761 668 l 683 231 q 682 214 682 222 m 271 281 q 268 246 268 268 q 289 202 268 224 q 359 181 310 181 q 444 219 408 181 l 486 453 q 414 488 471 488 q 289 385 307 488 l 271 281 m 676 928 q 676 897 676 928 q 622 814 676 865 q 503 763 567 763 q 404 799 440 763 q 368 899 368 836 q 423 1014 368 963 q 542 1065 478 1065 q 641 1028 606 1065 q 676 928 676 992 m 516 861 q 527 861 516 861 q 558 878 539 861 q 576 919 576 896 q 564 954 576 942 q 528 967 551 967 q 487 949 506 967 q 468 909 468 932 q 481 874 468 886 q 516 861 493 861 z "},"æ":{"ha":1186,"x_min":21,"x_max":1143,"o":"m 731 -19 q 465 81 522 -19 q 376 11 433 42 q 243 -19 318 -19 q 60 50 114 -19 q 22 176 22 99 q 29 250 22 210 l 58 413 q 160 612 81 538 q 369 686 240 686 q 543 626 497 686 l 550 668 l 704 668 q 863 689 775 689 q 1143 481 1143 689 q 1136 411 1143 449 l 1119 313 l 697 313 l 689 263 q 688 244 688 253 q 712 191 688 208 q 757 174 736 174 q 863 243 832 174 l 1093 240 q 731 -19 1047 -19 m 271 281 q 268 246 268 268 q 289 202 268 224 q 359 181 310 181 q 443 218 408 181 l 486 453 q 414 488 471 488 q 289 385 307 488 l 271 281 m 897 397 q 903 441 903 421 q 885 482 903 461 q 829 503 867 503 q 714 406 746 503 l 711 397 l 897 397 z "},"ç":{"ha":765,"x_min":25,"x_max":729,"o":"m 400 -118 q 347 -231 400 -193 q 236 -269 293 -269 q 145 -253 179 -269 q 97 -219 111 -236 l 85 -204 l 164 -122 q 187 -154 168 -139 q 228 -169 206 -169 q 293 -125 293 -169 q 214 -85 293 -85 l 254 -17 q 25 182 25 4 q 31 240 25 210 l 60 413 q 181 617 82 546 q 433 689 281 688 q 729 483 729 689 q 719 403 729 439 q 697 356 708 368 l 686 342 l 450 342 q 485 414 485 372 q 410 489 485 489 q 333 463 365 489 q 292 382 301 436 l 274 281 q 271 254 271 267 q 363 181 271 181 q 417 199 393 181 q 446 240 442 217 l 676 240 q 329 -19 631 -14 l 321 -33 q 378 -55 357 -33 q 400 -118 400 -76 z "},"è":{"ha":767,"x_min":22,"x_max":724,"o":"m 311 -19 q 22 181 22 -19 q 28 240 22 208 l 57 413 q 180 617 81 546 q 443 689 279 689 q 722 478 722 689 q 717 411 722 447 l 700 313 l 276 313 l 271 281 q 268 250 268 264 q 358 174 268 174 q 415 194 392 174 q 443 243 439 215 l 674 240 q 311 -19 628 -19 m 478 397 q 483 441 483 421 q 465 482 483 461 q 408 503 447 503 q 335 476 368 503 q 290 397 303 450 l 478 397 m 567 789 l 361 789 l 206 1121 l 456 1121 l 567 789 z "},"é":{"ha":767,"x_min":22,"x_max":818,"o":"m 311 -19 q 22 181 22 -19 q 28 240 22 208 l 57 413 q 180 617 81 546 q 443 689 279 689 q 722 478 722 689 q 717 411 722 447 l 700 313 l 276 313 l 271 281 q 268 250 268 264 q 358 174 268 174 q 415 194 392 174 q 443 243 439 215 l 674 240 q 311 -19 628 -19 m 478 397 q 483 441 483 421 q 465 482 483 461 q 408 503 447 503 q 335 476 368 503 q 290 397 303 450 l 478 397 m 546 789 l 340 789 l 568 1121 l 818 1121 l 546 789 z "},"ê":{"ha":767,"x_min":28,"x_max":757,"o":"m 311 -19 q 22 181 22 -19 q 28 240 22 208 l 57 413 q 180 617 81 546 q 443 689 279 689 q 722 478 722 689 q 717 411 722 447 l 700 313 l 276 313 l 271 281 q 268 250 268 264 q 358 174 268 174 q 415 194 392 174 q 443 243 439 215 l 674 240 q 311 -19 628 -19 m 478 397 q 483 441 483 421 q 465 482 483 461 q 408 503 447 503 q 335 476 368 503 q 290 397 303 450 l 478 397 m 368 789 l 169 789 l 396 1121 l 647 1121 l 757 789 l 558 789 l 492 953 l 368 789 z "},"ë":{"ha":767,"x_min":22,"x_max":781,"o":"m 311 -19 q 22 181 22 -19 q 28 240 22 208 l 57 413 q 180 617 81 546 q 443 689 279 689 q 722 478 722 689 q 717 411 722 447 l 700 313 l 276 313 l 271 281 q 268 250 268 264 q 358 174 268 174 q 415 194 392 174 q 443 243 439 215 l 674 240 q 311 -19 628 -19 m 478 397 q 483 441 483 421 q 465 482 483 461 q 408 503 447 503 q 335 476 368 503 q 290 397 303 450 l 478 397 m 165 864 q 197 967 165 935 q 296 1000 229 1000 q 389 919 389 1000 q 357 816 389 849 q 257 783 325 783 q 165 864 165 783 m 557 864 q 589 967 557 935 q 688 1000 621 1000 q 781 919 781 1000 q 749 816 781 849 q 649 783 717 783 q 557 864 557 783 z "},"ì":{"ha":435,"x_min":4,"x_max":381,"o":"m 282 214 q 319 178 282 178 q 381 192 356 178 l 374 35 q 224 -19 307 -19 q 61 39 97 -19 q 36 121 36 76 q 42 199 36 165 l 125 668 l 361 668 l 283 231 q 282 214 282 222 m 365 789 l 160 789 l 4 1121 l 254 1121 l 365 789 z "},"í":{"ha":435,"x_min":33,"x_max":631,"o":"m 281 214 q 317 178 281 178 q 379 192 354 178 l 372 35 q 222 -19 306 -19 q 58 39 96 -19 q 35 121 35 76 q 40 199 35 165 l 124 668 l 360 668 l 282 231 q 281 214 281 222 m 358 789 l 153 789 l 381 1121 l 631 1121 l 358 789 z "},"î":{"ha":435,"x_min":-29,"x_max":558,"o":"m 282 214 q 319 178 282 178 q 381 192 356 178 l 374 35 q 224 -19 307 -19 q 61 39 97 -19 q 36 121 36 76 q 42 199 36 165 l 125 668 l 361 668 l 283 231 q 282 214 282 222 m 169 789 l -29 789 l 197 1121 l 449 1121 l 558 789 l 360 789 l 293 953 l 169 789 z "},"ï":{"ha":435,"x_min":-19,"x_max":596,"o":"m 282 214 q 319 178 282 178 q 381 192 356 178 l 374 35 q 224 -19 307 -19 q 61 39 97 -19 q 36 121 36 76 q 42 199 36 165 l 125 668 l 361 668 l 283 231 q 282 214 282 222 m -19 864 q 13 967 -19 935 q 111 1000 44 1000 q 204 919 204 1000 q 172 816 204 849 q 72 783 140 783 q -19 864 -19 783 m 372 864 q 404 967 372 935 q 503 1000 436 1000 q 596 919 596 1000 q 564 816 596 849 q 464 783 532 783 q 372 864 372 783 z "},"ð":{"ha":872,"x_min":18,"x_max":907,"o":"m 514 793 l 494 794 q 357 683 357 794 l 361 644 l 115 644 q 110 703 110 667 q 218 928 110 846 q 531 1010 326 1010 q 729 975 649 1010 l 818 1050 l 907 943 l 832 881 q 860 767 860 826 q 851 658 860 707 l 796 339 q 657 67 764 154 q 351 -19 550 -19 q 18 239 18 -19 q 107 487 18 388 q 360 586 196 586 l 589 586 l 599 639 q 603 688 603 667 l 529 625 l 442 732 l 514 793 m 389 196 q 494 231 454 196 q 549 358 533 265 l 556 399 l 413 399 q 312 369 353 399 q 271 274 271 339 q 389 196 271 196 z "},"ñ":{"ha":831,"x_min":11,"x_max":796,"o":"m 478 426 q 420 486 478 486 q 325 443 363 486 l 247 0 l 11 0 l 129 668 l 349 668 l 333 586 q 540 688 415 688 q 703 626 665 688 q 726 538 726 588 q 719 444 726 488 l 682 231 q 681 215 681 222 q 722 178 681 178 q 779 192 754 178 l 772 35 q 624 -19 707 -19 q 435 139 435 -19 q 440 199 435 167 l 474 383 q 478 426 478 408 m 686 831 q 660 821 686 831 q 590 811 635 811 q 471 841 546 811 q 349 871 396 871 q 194 844 265 871 l 171 835 l 199 989 q 216 1010 204 997 q 273 1043 228 1022 q 375 1064 318 1064 q 516 1032 432 1064 q 649 1000 600 1000 q 734 1010 699 1000 q 782 1031 769 1021 l 796 1042 l 768 875 q 686 831 738 850 z "},"ò":{"ha":783,"x_min":31,"x_max":725,"o":"m 446 688 q 672 622 596 688 q 732 479 732 571 q 725 413 732 449 l 696 250 q 573 42 669 103 q 315 -19 476 -19 q 79 42 154 -19 q 24 179 24 88 q 31 250 24 211 l 60 413 q 446 688 108 688 m 483 385 q 486 420 486 399 q 468 468 486 442 q 405 494 450 494 q 329 465 360 494 q 290 385 299 435 l 272 281 q 269 245 269 267 q 288 199 269 224 q 351 174 306 174 q 426 205 396 174 q 465 281 457 236 l 483 385 m 571 789 l 365 789 l 210 1121 l 460 1121 l 571 789 z "},"ó":{"ha":783,"x_min":24,"x_max":811,"o":"m 446 688 q 672 622 596 688 q 732 479 732 571 q 725 413 732 449 l 696 250 q 573 42 669 103 q 315 -19 476 -19 q 79 42 154 -19 q 24 179 24 88 q 31 250 24 211 l 60 413 q 446 688 108 688 m 483 385 q 486 420 486 399 q 468 468 486 442 q 405 494 450 494 q 329 465 360 494 q 290 385 299 435 l 272 281 q 269 245 269 267 q 288 199 269 224 q 351 174 306 174 q 426 205 396 174 q 465 281 457 236 l 483 385 m 539 789 l 333 789 l 561 1121 l 811 1121 l 539 789 z "},"ô":{"ha":783,"x_min":24,"x_max":747,"o":"m 446 688 q 672 622 596 688 q 732 479 732 571 q 725 413 732 449 l 696 250 q 573 42 669 103 q 315 -19 476 -19 q 79 42 154 -19 q 24 179 24 88 q 31 250 24 211 l 60 413 q 446 688 108 688 m 483 385 q 486 420 486 399 q 468 468 486 442 q 405 494 450 494 q 329 465 360 494 q 290 385 299 435 l 272 281 q 269 245 269 267 q 288 199 269 224 q 351 174 306 174 q 426 205 396 174 q 465 281 457 236 l 483 385 m 358 789 l 160 789 l 386 1121 l 638 1121 l 747 789 l 549 789 l 482 953 l 358 789 z "},"õ":{"ha":783,"x_min":31,"x_max":785,"o":"m 446 688 q 672 622 596 688 q 732 479 732 571 q 725 413 732 449 l 696 250 q 573 42 669 103 q 315 -19 476 -19 q 79 42 154 -19 q 24 179 24 88 q 31 250 24 211 l 60 413 q 446 688 108 688 m 483 385 q 486 420 486 399 q 468 468 486 442 q 405 494 450 494 q 329 465 360 494 q 290 385 299 435 l 272 281 q 269 245 269 267 q 288 199 269 224 q 351 174 306 174 q 426 205 396 174 q 465 281 457 236 l 483 385 m 675 831 q 649 821 675 831 q 579 811 624 811 q 460 841 535 811 q 338 871 385 871 q 183 844 254 871 l 160 835 l 188 989 q 205 1010 193 997 q 262 1043 217 1022 q 364 1064 307 1064 q 505 1032 421 1064 q 638 1000 589 1000 q 723 1010 688 1000 q 771 1031 758 1021 l 785 1042 l 757 875 q 675 831 726 850 z "},"ö":{"ha":783,"x_min":24,"x_max":781,"o":"m 446 688 q 672 622 596 688 q 732 479 732 571 q 725 413 732 449 l 696 250 q 573 42 669 103 q 315 -19 476 -19 q 79 42 154 -19 q 24 179 24 88 q 31 250 24 211 l 60 413 q 446 688 108 688 m 483 385 q 486 420 486 399 q 468 468 486 442 q 405 494 450 494 q 329 465 360 494 q 290 385 299 435 l 272 281 q 269 245 269 267 q 288 199 269 224 q 351 174 306 174 q 426 205 396 174 q 465 281 457 236 l 483 385 m 165 864 q 197 967 165 935 q 296 1000 229 1000 q 389 919 389 1000 q 357 816 389 849 q 257 783 325 783 q 165 864 165 783 m 557 864 q 589 967 557 935 q 688 1000 621 1000 q 781 919 781 1000 q 749 816 781 849 q 649 783 717 783 q 557 864 557 783 z "},"÷":{"ha":608,"x_min":36,"x_max":581,"o":"m 551 339 l 36 339 l 65 503 l 581 503 l 551 339 m 106 115 q 145 245 106 204 q 256 286 185 286 q 356 262 326 286 q 385 183 385 238 q 345 56 385 96 q 221 15 306 15 q 106 115 106 15 m 201 661 q 241 791 201 750 q 352 832 281 832 q 452 808 424 832 q 481 729 481 783 q 441 601 481 642 q 317 561 401 561 q 201 661 201 561 z "},"ø":{"ha":783,"x_min":24,"x_max":732,"o":"m 315 -19 l 267 -18 l 229 -96 l 111 -96 l 158 0 q 24 183 24 42 q 31 250 24 214 l 60 413 q 181 617 83 547 q 440 688 278 688 q 490 686 474 688 l 529 764 l 646 764 l 597 665 q 731 476 731 617 q 725 413 731 446 l 696 250 q 573 42 669 103 q 315 -19 476 -19 m 272 281 q 269 251 269 263 q 271 233 269 240 l 397 494 q 326 463 354 492 q 290 385 299 433 l 272 281 m 483 385 q 486 412 486 400 q 483 432 486 424 l 360 174 q 428 208 400 176 q 465 281 457 239 l 483 385 z "},"ù":{"ha":854,"x_min":44,"x_max":799,"o":"m 700 214 q 737 178 700 178 q 799 192 774 178 l 792 35 q 642 -19 725 -19 q 471 101 485 -19 q 247 -19 388 -19 q 64 44 106 -19 q 36 136 36 85 q 44 231 36 188 l 122 668 l 358 668 l 293 299 q 289 249 289 274 q 364 182 289 182 q 464 225 426 182 l 543 668 l 779 668 l 701 231 q 700 214 700 222 m 574 789 l 368 789 l 213 1121 l 463 1121 l 574 789 z "},"ú":{"ha":854,"x_min":36,"x_max":817,"o":"m 700 214 q 737 178 700 178 q 799 192 774 178 l 792 35 q 642 -19 725 -19 q 471 101 485 -19 q 247 -19 388 -19 q 64 44 106 -19 q 36 136 36 85 q 44 231 36 188 l 122 668 l 358 668 l 293 299 q 289 249 289 274 q 364 182 289 182 q 464 225 426 182 l 543 668 l 779 668 l 701 231 q 700 214 700 222 m 544 789 l 339 789 l 567 1121 l 817 1121 l 544 789 z "},"û":{"ha":854,"x_min":44,"x_max":799,"o":"m 700 214 q 737 178 700 178 q 799 192 774 178 l 792 35 q 642 -19 725 -19 q 471 101 485 -19 q 247 -19 388 -19 q 64 44 106 -19 q 36 136 36 85 q 44 231 36 188 l 122 668 l 358 668 l 293 299 q 289 249 289 274 q 364 182 289 182 q 464 225 426 182 l 543 668 l 779 668 l 701 231 q 700 214 700 222 m 369 789 l 171 789 l 397 1121 l 649 1121 l 758 789 l 560 789 l 493 953 l 369 789 z "},"ü":{"ha":854,"x_min":36,"x_max":813,"o":"m 700 214 q 737 178 700 178 q 799 192 774 178 l 792 35 q 642 -19 725 -19 q 471 101 485 -19 q 247 -19 388 -19 q 64 44 106 -19 q 36 136 36 85 q 44 231 36 188 l 122 668 l 358 668 l 293 299 q 289 249 289 274 q 364 182 289 182 q 464 225 426 182 l 543 668 l 779 668 l 701 231 q 700 214 700 222 m 197 864 q 229 967 197 935 q 328 1000 261 1000 q 421 919 421 1000 q 389 816 421 849 q 289 783 357 783 q 197 864 197 783 m 589 864 q 621 967 589 935 q 719 1000 653 1000 q 813 919 813 1000 q 781 816 813 849 q 681 783 749 783 q 589 864 589 783 z "},"ý":{"ha":792,"x_min":7,"x_max":819,"o":"m 296 299 q 292 249 292 274 q 367 182 292 182 q 468 225 428 182 l 546 668 l 782 668 l 660 -22 q 520 -301 629 -199 q 271 -404 411 -404 q 69 -353 131 -404 q 7 -218 7 -301 q 153 -8 7 -100 q 53 71 74 11 q 40 146 40 104 q 47 231 40 188 l 125 668 l 361 668 l 296 299 m 303 -206 q 421 -42 393 -206 l 435 39 q 242 -143 242 -51 q 258 -188 242 -171 q 303 -206 274 -206 m 547 789 l 342 789 l 569 1121 l 819 1121 l 547 789 z "},"þ":{"ha":799,"x_min":-58,"x_max":746,"o":"m 511 686 q 707 611 653 686 q 746 481 746 560 q 739 413 746 449 l 711 250 q 610 49 688 118 q 415 -19 532 -19 q 253 43 299 -19 l 178 -386 l -58 -386 l 197 1054 l 432 1054 l 356 631 q 511 686 411 686 m 367 181 q 439 206 406 181 q 481 281 472 231 l 499 385 q 501 419 501 399 q 483 464 501 440 q 421 488 465 488 q 326 453 349 488 l 285 219 q 367 181 304 181 z "},"ÿ":{"ha":792,"x_min":7,"x_max":821,"o":"m 296 299 q 292 249 292 274 q 367 182 292 182 q 468 225 428 182 l 546 668 l 782 668 l 660 -22 q 520 -301 629 -199 q 271 -404 411 -404 q 69 -353 131 -404 q 7 -218 7 -301 q 153 -8 7 -100 q 53 71 74 11 q 40 146 40 104 q 47 231 40 188 l 125 668 l 361 668 l 296 299 m 303 -206 q 421 -42 393 -206 l 435 39 q 242 -143 242 -51 q 258 -188 242 -171 q 303 -206 274 -206 m 206 864 q 238 967 206 935 q 336 1000 269 1000 q 429 919 429 1000 q 397 816 429 849 q 297 783 365 783 q 206 864 206 783 m 597 864 q 629 967 597 935 q 728 1000 661 1000 q 821 919 821 1000 q 789 816 821 849 q 689 783 757 783 q 597 864 597 783 z "},"Ł":{"ha":824,"x_min":-7,"x_max":776,"o":"m 738 0 l 104 0 l 163 329 l 54 272 l -7 424 l 197 531 l 281 1000 l 531 1000 l 474 675 l 647 767 l 707 615 l 438 474 l 393 217 l 776 217 l 738 0 z "},"ł":{"ha":554,"x_min":19,"x_max":611,"o":"m 411 178 q 468 192 443 178 l 461 35 q 311 -19 394 -19 q 147 39 185 -19 q 124 121 124 76 q 129 199 124 165 l 161 379 l 81 338 l 19 489 l 197 582 l 281 1054 l 517 1054 l 457 718 l 550 768 l 611 617 l 421 517 l 371 231 q 369 215 369 222 q 411 178 369 178 z "},"Œ":{"ha":1361,"x_min":53,"x_max":1404,"o":"m 386 0 q 108 85 186 0 q 54 256 54 144 q 64 360 54 303 l 113 638 q 256 910 144 819 q 567 1000 367 1000 l 1404 1000 l 1365 783 l 918 783 l 885 596 l 1254 596 l 1217 379 l 847 379 l 818 217 l 1265 217 l 1228 0 l 386 0 m 425 196 q 536 232 494 196 q 594 365 578 268 l 642 632 q 646 682 646 660 q 532 794 646 794 q 361 632 389 792 l 314 365 q 308 293 308 331 q 425 196 308 196 z "},"œ":{"ha":1197,"x_min":24,"x_max":1157,"o":"m 743 -19 q 538 22 613 -19 q 303 -19 453 -19 q 79 42 154 -19 q 24 179 24 88 q 31 250 24 211 l 60 413 q 181 617 83 547 q 426 688 278 688 q 649 639 574 688 q 875 689 742 689 q 1156 478 1156 689 q 1150 411 1156 447 l 1133 313 l 708 313 l 703 281 q 700 250 700 264 q 792 174 700 174 q 848 194 825 174 q 875 243 871 215 l 1106 240 q 743 -19 1060 -19 m 483 385 q 486 420 486 399 q 468 468 486 442 q 405 494 450 494 q 329 465 360 494 q 290 385 299 435 l 272 281 q 269 245 269 267 q 288 199 269 224 q 351 174 306 174 q 426 205 396 174 q 465 281 457 236 l 483 385 m 911 397 q 917 441 917 421 q 898 482 917 461 q 840 503 879 503 q 768 476 800 503 q 724 397 736 450 l 911 397 z "},"Š":{"ha":900,"x_min":43,"x_max":947,"o":"m 292 285 q 430 189 292 189 q 568 275 568 189 q 521 350 568 321 q 406 399 474 379 q 272 444 339 418 q 157 524 204 469 q 110 661 110 579 q 558 1010 110 1010 q 806 948 722 1010 q 890 776 890 886 q 880 699 890 736 q 858 647 869 663 l 847 631 l 601 631 q 632 711 632 663 q 514 801 632 801 q 365 707 365 801 q 413 632 365 660 q 527 588 460 604 q 663 549 594 572 q 778 470 731 525 q 825 328 825 415 q 719 66 825 151 q 394 -19 614 -19 q 94 58 175 -19 q 35 219 35 117 q 43 304 35 258 l 47 326 l 297 326 l 294 310 q 292 285 292 296 m 469 1121 l 469 1122 l 360 1453 l 558 1453 l 624 1289 l 749 1453 l 947 1453 l 719 1122 l 721 1121 l 469 1121 z "},"š":{"ha":763,"x_min":10,"x_max":822,"o":"m 725 524 q 697 439 725 478 l 469 439 q 481 467 481 447 q 458 498 481 486 q 401 510 436 510 q 297 446 297 510 q 336 410 297 421 q 431 392 375 399 q 542 372 486 385 q 636 319 597 358 q 675 215 675 281 q 583 40 675 100 q 314 -19 490 -19 q 67 38 138 -19 q 11 160 11 82 q 15 206 11 182 l 247 208 q 270 174 244 189 q 346 160 296 160 q 418 170 396 160 q 440 210 440 181 q 401 237 440 229 q 306 250 363 244 q 194 268 250 256 q 99 321 138 281 q 60 426 60 361 q 158 621 60 553 q 440 689 256 689 q 725 524 725 689 m 344 789 l 344 790 l 235 1121 l 433 1121 l 499 957 l 624 1121 l 822 1121 l 594 790 l 596 789 l 344 789 z "},"Ÿ":{"ha":894,"x_min":104,"x_max":994,"o":"m 510 649 l 744 1000 l 994 1000 l 567 385 l 499 0 l 247 0 l 315 385 l 104 1000 l 369 1000 l 478 649 l 510 649 m 292 1196 q 324 1299 292 1267 q 422 1332 356 1332 q 515 1251 515 1332 q 483 1148 515 1181 q 383 1115 451 1115 q 292 1196 292 1115 m 683 1196 q 715 1299 683 1267 q 814 1332 747 1332 q 907 1251 907 1332 q 875 1148 907 1181 q 775 1115 843 1115 q 683 1196 683 1115 z "},"Ž":{"ha":858,"x_min":-10,"x_max":900,"o":"m 722 0 l -10 0 l 29 217 l 31 217 l 568 783 l 128 783 l 167 1000 l 900 1000 l 861 783 l 324 217 l 761 217 l 722 0 m 396 1121 l 396 1122 l 286 1453 l 485 1453 l 550 1289 l 675 1453 l 874 1453 l 646 1122 l 647 1121 l 396 1121 z "},"ž":{"ha":751,"x_min":-8,"x_max":788,"o":"m 615 0 l -8 0 l 26 194 l 418 474 l 75 474 l 110 668 l 733 668 l 699 474 l 319 194 l 650 194 l 615 0 m 310 789 l 310 790 l 200 1121 l 399 1121 l 464 957 l 589 1121 l 788 1121 l 560 790 l 561 789 l 310 789 z "},"ƒ":{"ha":767,"x_min":-17,"x_max":715,"o":"m 639 -25 q 535 -358 639 -228 q 255 -487 432 -487 q 19 -400 78 -487 q -17 -265 -17 -344 q -3 -106 -17 -185 l 175 900 l 411 900 l 369 668 l 715 668 l 681 472 l 408 472 q 573 267 507 393 q 639 -25 639 140 m 394 -33 q 311 340 394 168 l 233 -104 q 225 -189 225 -153 q 290 -289 225 -289 q 364 -219 333 -289 q 394 -33 394 -150 z "},"ˆ":{"ha":726,"x_min":208,"x_max":796,"o":"m 407 789 l 208 789 l 435 1121 l 686 1121 l 796 789 l 597 789 l 531 953 l 407 789 z "},"ˇ":{"ha":726,"x_min":267,"x_max":854,"o":"m 376 789 l 376 790 l 267 1121 l 465 1121 l 531 957 l 656 1121 l 854 1121 l 626 790 l 628 789 l 376 789 z "},"˘":{"ha":550,"x_min":243,"x_max":661,"o":"m 382 988 q 439 929 382 929 q 497 951 476 929 q 525 1022 517 974 l 661 1022 q 587 860 644 925 q 417 796 529 796 q 243 954 243 796 q 250 1022 243 985 l 385 1022 q 382 988 382 1003 z "},"˚":{"ha":442,"x_min":228,"x_max":536,"o":"m 536 928 q 536 897 536 928 q 481 814 536 865 q 363 763 426 763 q 264 799 300 763 q 228 899 228 836 q 283 1014 228 963 q 401 1065 338 1065 q 501 1028 465 1065 q 536 928 536 992 m 376 861 q 387 861 376 861 q 417 878 399 861 q 436 919 436 896 q 424 954 436 942 q 388 967 411 967 q 347 949 365 967 q 328 909 328 932 q 340 874 328 886 q 376 861 353 861 z "},"˛":{"ha":440,"x_min":43,"x_max":335,"o":"m 263 -250 q 241 -260 263 -250 q 169 -269 218 -269 q 81 -242 119 -269 q 43 -153 43 -214 q 101 -44 43 -93 q 218 19 160 4 l 276 35 l 319 3 q 185 -72 224 -21 q 168 -115 168 -93 q 182 -149 168 -136 q 219 -162 196 -162 q 261 -151 242 -162 q 289 -129 281 -140 l 299 -118 l 335 -204 q 263 -250 308 -231 z "},"˜":{"ha":729,"x_min":217,"x_max":842,"o":"m 732 831 q 706 821 732 831 q 636 811 681 811 q 517 841 592 811 q 394 871 442 871 q 240 844 311 871 l 217 835 l 244 989 q 262 1010 250 997 q 319 1043 274 1022 q 421 1064 364 1064 q 562 1032 478 1064 q 695 1000 646 1000 q 780 1010 744 1000 q 828 1031 815 1021 l 842 1042 l 814 875 q 732 831 783 850 z "},"˝":{"ha":993,"x_min":208,"x_max":1121,"o":"m 414 789 l 208 789 l 436 1121 l 686 1121 l 414 789 m 849 789 l 643 789 l 871 1121 l 1121 1121 l 849 789 z "},"–":{"ha":843,"x_min":57,"x_max":774,"o":"m 743 290 l 57 290 l 88 465 l 774 465 l 743 290 z "},"—":{"ha":1129,"x_min":57,"x_max":1060,"o":"m 1029 290 l 57 290 l 88 465 l 1060 465 l 1029 290 z "},"‘":{"ha":406,"x_min":121,"x_max":507,"o":"m 410 757 q 370 627 410 668 q 247 586 331 586 q 121 710 121 586 q 222 1019 121 919 q 507 1118 322 1118 l 490 1018 q 374 976 440 1018 q 294 857 308 933 q 410 757 410 857 z "},"’":{"ha":439,"x_min":90,"x_max":478,"o":"m 189 947 q 228 1077 189 1036 q 351 1118 268 1118 q 478 994 478 1118 q 90 586 478 586 l 108 686 q 224 728 158 686 q 304 847 290 771 q 189 947 189 847 z "},"‚":{"ha":410,"x_min":-90,"x_max":296,"o":"m 7 81 q 47 210 7 169 q 171 251 86 251 q 296 128 296 251 q -90 -281 296 -281 l -72 -181 q 74 -111 1 -181 q 122 -19 114 -72 q 7 81 7 -19 z "},"“":{"ha":781,"x_min":121,"x_max":882,"o":"m 785 757 q 745 627 785 668 q 622 586 706 586 q 496 710 496 586 q 597 1019 496 919 q 882 1118 697 1118 l 865 1018 q 749 976 815 1018 q 669 857 683 933 q 785 757 785 857 m 410 757 q 370 627 410 668 q 247 586 331 586 q 121 710 121 586 q 222 1019 121 919 q 507 1118 322 1118 l 490 1018 q 374 976 440 1018 q 294 857 308 933 q 410 757 410 857 z "},"”":{"ha":814,"x_min":90,"x_max":853,"o":"m 189 947 q 228 1077 189 1036 q 351 1118 268 1118 q 478 994 478 1118 q 90 586 478 586 l 108 686 q 224 728 158 686 q 304 847 290 771 q 189 947 189 847 m 564 947 q 603 1077 564 1036 q 726 1118 643 1118 q 853 994 853 1118 q 465 586 853 586 l 483 686 q 599 728 533 686 q 679 847 665 771 q 564 947 564 847 z "},"„":{"ha":786,"x_min":-90,"x_max":672,"o":"m 7 81 q 47 210 7 169 q 171 251 86 251 q 296 128 296 251 q -90 -281 296 -281 l -72 -181 q 74 -111 1 -181 q 122 -19 114 -72 q 7 81 7 -19 m 383 81 q 424 210 383 169 q 547 251 464 251 q 672 128 672 251 q 286 -281 672 -281 l 304 -181 q 450 -111 378 -181 q 499 -19 490 -72 q 383 81 383 -19 z "},"†":{"ha":532,"x_min":82,"x_max":563,"o":"m 278 136 l 157 136 l 222 665 l 82 665 l 104 790 l 244 790 l 290 1054 l 467 1054 l 421 790 l 563 790 l 540 665 l 399 665 l 278 136 z "},"‡":{"ha":568,"x_min":51,"x_max":581,"o":"m 296 138 l 175 138 l 207 390 l 51 390 l 74 515 l 222 515 l 240 665 l 100 665 l 122 790 l 263 790 l 308 1054 l 485 1054 l 439 790 l 581 790 l 558 665 l 417 665 l 382 515 l 532 515 l 510 390 l 353 390 l 296 138 z "},"•":{"ha":564,"x_min":85,"x_max":475,"o":"m 85 351 q 140 533 85 476 q 313 590 194 590 q 434 557 393 590 q 475 447 475 524 q 419 267 475 324 q 246 211 363 211 q 124 244 164 211 q 85 351 85 276 z "},"…":{"ha":1092,"x_min":7,"x_max":985,"o":"m 7 81 q 46 210 7 169 q 169 251 85 251 q 286 149 286 251 q 247 21 286 61 q 122 -19 207 -19 q 7 81 7 -19 m 351 81 q 391 210 351 169 q 514 251 431 251 q 631 149 631 251 q 591 21 631 61 q 467 -19 551 -19 q 351 81 351 -19 m 706 81 q 744 210 706 169 q 868 251 783 251 q 985 149 985 251 q 945 21 985 61 q 821 -19 906 -19 q 706 81 706 -19 z "},"‰":{"ha":1674,"x_min":88,"x_max":1621,"o":"m 358 1010 q 535 858 535 1010 q 529 803 535 833 l 513 706 q 267 494 475 494 q 89 646 89 494 q 94 706 89 674 l 111 803 q 358 1010 146 1010 m 236 669 q 289 617 236 617 q 338 636 319 617 q 367 708 357 656 l 383 800 q 386 831 386 817 q 336 888 386 888 q 257 800 272 888 l 240 708 q 236 669 236 686 m 143 0 l 867 1010 l 1061 1010 l 338 0 l 143 0 m 931 493 q 1108 344 1108 493 q 1103 286 1108 318 l 1085 189 q 1006 30 1065 82 q 840 -22 947 -22 q 661 129 661 -22 q 667 189 661 156 l 685 286 q 931 493 722 493 m 811 154 q 861 100 811 100 q 912 119 892 100 q 940 192 932 139 l 956 283 q 958 314 958 300 q 908 371 958 371 q 829 283 844 371 l 814 192 q 811 154 811 171 m 1442 493 q 1619 344 1619 493 q 1614 286 1619 318 l 1596 189 q 1517 30 1576 82 q 1351 -22 1458 -22 q 1172 129 1172 -22 q 1178 189 1172 156 l 1196 286 q 1442 493 1233 493 m 1322 154 q 1372 100 1322 100 q 1423 119 1403 100 q 1451 192 1443 139 l 1467 283 q 1469 314 1469 300 q 1419 371 1469 371 q 1340 283 1356 371 l 1325 192 q 1322 154 1322 171 z "},"‹":{"ha":396,"x_min":43,"x_max":363,"o":"m 206 117 l 43 315 l 61 419 l 293 618 l 363 510 l 196 367 l 313 225 l 206 117 z "},"›":{"ha":396,"x_min":18,"x_max":338,"o":"m 318 315 l 86 117 l 18 225 l 185 367 l 68 510 l 175 618 l 338 419 l 318 315 z "},"€":{"ha":968,"x_min":32,"x_max":969,"o":"m 450 -19 q 176 67 253 -19 q 122 235 122 128 q 132 333 122 281 l 32 333 l 54 457 l 154 457 l 168 540 l 68 540 l 90 664 l 190 664 q 642 1010 253 1010 q 907 928 826 1010 q 968 764 968 864 q 963 699 968 733 l 711 699 q 713 717 713 708 q 688 770 713 746 q 603 794 664 794 q 440 664 475 794 l 640 664 l 618 540 l 418 540 l 404 457 l 604 457 l 582 333 l 382 333 q 381 300 381 315 q 405 222 381 249 q 490 196 429 196 q 647 344 621 196 l 897 344 l 890 304 q 450 -19 835 -19 z "},"™":{"ha":1340,"x_min":151,"x_max":1364,"o":"m 950 1054 l 1019 801 l 1179 1054 l 1364 1054 l 1265 493 l 1103 493 l 1153 782 l 1035 593 l 932 593 l 878 782 l 828 493 l 665 493 l 764 1054 l 950 1054 m 675 904 l 506 904 l 433 493 l 249 493 l 321 904 l 151 904 l 178 1054 l 701 1054 l 675 904 z "},"≠":{"ha":668,"x_min":26,"x_max":622,"o":"m 542 132 l 321 132 l 264 0 l 69 0 l 126 132 l 26 132 l 56 296 l 199 296 l 256 425 l 78 425 l 107 589 l 326 589 l 413 783 l 607 783 l 521 589 l 622 589 l 593 425 l 450 425 l 393 296 l 571 296 l 542 132 z "},"ﬁ":{"ha":1139,"x_min":-22,"x_max":1135,"o":"m 986 214 q 1023 178 986 178 q 1085 192 1060 178 l 1078 35 q 928 -19 1011 -19 q 764 39 801 -19 q 740 121 740 76 q 746 199 740 165 l 794 472 l 403 472 q 567 267 501 393 q 633 -25 633 140 q 530 -358 633 -228 q 249 -487 426 -487 q 14 -400 72 -487 q -22 -265 -22 -344 q -8 -106 -22 -185 l 169 900 l 406 900 l 364 668 l 1065 668 l 988 231 q 986 214 986 222 m 389 -33 q 306 340 389 168 l 228 -104 q 219 -189 219 -153 q 285 -289 219 -289 q 358 -219 328 -289 q 389 -33 389 -150 m 971 794 q 854 882 854 794 q 860 929 854 903 q 915 1034 878 1003 q 1015 1065 951 1065 q 1106 1041 1078 1065 q 1135 963 1135 1017 q 1095 835 1135 875 q 971 794 1056 794 z "},"ﬂ":{"ha":1126,"x_min":-22,"x_max":1121,"o":"m 633 -25 q 530 -358 633 -228 q 249 -487 426 -487 q 14 -400 72 -487 q -22 -265 -22 -344 q -8 -106 -22 -185 l 169 900 l 406 900 l 364 668 l 710 668 l 675 472 l 403 472 q 567 267 501 393 q 633 -25 633 140 m 285 -289 q 358 -219 328 -289 q 389 -37 389 -150 q 366 192 389 76 q 311 372 343 307 l 228 -104 q 219 -189 219 -153 q 285 -289 219 -289 m 974 214 q 1010 178 974 178 q 1072 192 1047 178 l 1065 35 q 915 -19 999 -19 q 753 39 789 -19 q 728 121 728 76 q 733 199 728 165 l 885 1054 l 1121 1054 l 975 231 q 974 214 974 222 z "}}}
